<mxfile host="app.diagrams.net" modified="2021-09-24T17:22:36.527Z" agent="5.0 (Macintosh; Intel Mac OS X 10_15_7) AppleWebKit/537.36 (KHTML, like Gecko) Chrome/93.0.4577.63 Safari/537.36" etag="47b3DwxsAK73NePHfX2J" version="14.8.2" type="github" pages="4">
  <diagram id="Wi8UKH0pFblha7fynHP5" name="第 1 页">
    <mxGraphModel dx="1701" dy="645" grid="1" gridSize="10" guides="1" tooltips="1" connect="1" arrows="1" fold="1" page="1" pageScale="1" pageWidth="827" pageHeight="1169" math="0" shadow="0">
      <root>
        <mxCell id="0" />
        <mxCell id="1" parent="0" />
        <mxCell id="KEhzl8udHTvsiTRnRBnp-1384" value="" style="endArrow=none;html=1;" parent="1" edge="1">
          <mxGeometry width="50" height="50" relative="1" as="geometry">
            <mxPoint x="120" y="660" as="sourcePoint" />
            <mxPoint x="120" y="620" as="targetPoint" />
          </mxGeometry>
        </mxCell>
        <mxCell id="KEhzl8udHTvsiTRnRBnp-1388" value="" style="edgeStyle=orthogonalEdgeStyle;rounded=0;orthogonalLoop=1;jettySize=auto;html=1;" parent="1" source="KEhzl8udHTvsiTRnRBnp-1386" edge="1">
          <mxGeometry relative="1" as="geometry">
            <mxPoint x="120" y="750" as="targetPoint" />
          </mxGeometry>
        </mxCell>
        <mxCell id="KEhzl8udHTvsiTRnRBnp-1386" value="查看订单信息" style="rounded=1;whiteSpace=wrap;html=1;" parent="1" vertex="1">
          <mxGeometry x="70" y="660" width="100" height="50" as="geometry" />
        </mxCell>
        <mxCell id="KEhzl8udHTvsiTRnRBnp-1390" style="edgeStyle=orthogonalEdgeStyle;rounded=0;orthogonalLoop=1;jettySize=auto;html=1;exitX=0.5;exitY=1;exitDx=0;exitDy=0;" parent="1" source="KEhzl8udHTvsiTRnRBnp-1387" edge="1">
          <mxGeometry relative="1" as="geometry">
            <mxPoint x="120.33333333333337" y="900" as="targetPoint" />
          </mxGeometry>
        </mxCell>
        <mxCell id="KEhzl8udHTvsiTRnRBnp-1414" value="是" style="edgeLabel;html=1;align=center;verticalAlign=middle;resizable=0;points=[];" parent="KEhzl8udHTvsiTRnRBnp-1390" vertex="1" connectable="0">
          <mxGeometry x="-0.2122" y="1" relative="1" as="geometry">
            <mxPoint as="offset" />
          </mxGeometry>
        </mxCell>
        <mxCell id="KEhzl8udHTvsiTRnRBnp-1487" style="edgeStyle=orthogonalEdgeStyle;rounded=0;orthogonalLoop=1;jettySize=auto;html=1;exitX=1;exitY=0.5;exitDx=0;exitDy=0;startArrow=none;startFill=0;endArrow=classic;endFill=1;" parent="1" source="KEhzl8udHTvsiTRnRBnp-1387" edge="1">
          <mxGeometry relative="1" as="geometry">
            <mxPoint x="199.99999999999977" y="847.2857142857144" as="targetPoint" />
          </mxGeometry>
        </mxCell>
        <mxCell id="KEhzl8udHTvsiTRnRBnp-1489" value="否" style="edgeLabel;html=1;align=center;verticalAlign=middle;resizable=0;points=[];" parent="KEhzl8udHTvsiTRnRBnp-1487" vertex="1" connectable="0">
          <mxGeometry x="0.0605" relative="1" as="geometry">
            <mxPoint as="offset" />
          </mxGeometry>
        </mxCell>
        <mxCell id="KEhzl8udHTvsiTRnRBnp-1387" value="是否退单" style="rhombus;whiteSpace=wrap;html=1;rounded=1;" parent="1" vertex="1">
          <mxGeometry x="80" y="820" width="80" height="55" as="geometry" />
        </mxCell>
        <mxCell id="KEhzl8udHTvsiTRnRBnp-1392" style="edgeStyle=orthogonalEdgeStyle;rounded=0;orthogonalLoop=1;jettySize=auto;html=1;exitX=0.5;exitY=1;exitDx=0;exitDy=0;" parent="1" source="KEhzl8udHTvsiTRnRBnp-1391" edge="1">
          <mxGeometry relative="1" as="geometry">
            <mxPoint x="120.33333333333337" y="980" as="targetPoint" />
          </mxGeometry>
        </mxCell>
        <mxCell id="KEhzl8udHTvsiTRnRBnp-1391" value="获取商品订单/用户信息" style="rounded=1;whiteSpace=wrap;html=1;" parent="1" vertex="1">
          <mxGeometry x="70" y="900" width="100" height="50" as="geometry" />
        </mxCell>
        <mxCell id="KEhzl8udHTvsiTRnRBnp-1396" value="" style="edgeStyle=orthogonalEdgeStyle;rounded=0;orthogonalLoop=1;jettySize=auto;html=1;" parent="1" source="KEhzl8udHTvsiTRnRBnp-1393" edge="1">
          <mxGeometry relative="1" as="geometry">
            <mxPoint x="120" y="1080" as="targetPoint" />
          </mxGeometry>
        </mxCell>
        <mxCell id="KEhzl8udHTvsiTRnRBnp-1399" value="是" style="edgeLabel;html=1;align=center;verticalAlign=middle;resizable=0;points=[];" parent="KEhzl8udHTvsiTRnRBnp-1396" vertex="1" connectable="0">
          <mxGeometry x="-0.175" y="1" relative="1" as="geometry">
            <mxPoint as="offset" />
          </mxGeometry>
        </mxCell>
        <mxCell id="KEhzl8udHTvsiTRnRBnp-1400" style="edgeStyle=orthogonalEdgeStyle;rounded=0;orthogonalLoop=1;jettySize=auto;html=1;exitX=1;exitY=0.5;exitDx=0;exitDy=0;entryX=0.5;entryY=0;entryDx=0;entryDy=0;" parent="1" source="KEhzl8udHTvsiTRnRBnp-1393" target="KEhzl8udHTvsiTRnRBnp-1403" edge="1">
          <mxGeometry relative="1" as="geometry">
            <mxPoint x="240" y="1080" as="targetPoint" />
            <Array as="points">
              <mxPoint x="250" y="1010" />
            </Array>
          </mxGeometry>
        </mxCell>
        <mxCell id="KEhzl8udHTvsiTRnRBnp-1401" value="超过4分钟未接单" style="edgeLabel;html=1;align=center;verticalAlign=middle;resizable=0;points=[];" parent="KEhzl8udHTvsiTRnRBnp-1400" vertex="1" connectable="0">
          <mxGeometry x="-0.3556" relative="1" as="geometry">
            <mxPoint as="offset" />
          </mxGeometry>
        </mxCell>
        <mxCell id="KEhzl8udHTvsiTRnRBnp-1393" value="是否有骑手接单" style="rhombus;whiteSpace=wrap;html=1;rounded=1;" parent="1" vertex="1">
          <mxGeometry x="80" y="980" width="80" height="60" as="geometry" />
        </mxCell>
        <mxCell id="itn4VVWf9__hn8ElCKPR-24" style="edgeStyle=orthogonalEdgeStyle;rounded=0;orthogonalLoop=1;jettySize=auto;html=1;exitX=0.5;exitY=1;exitDx=0;exitDy=0;startArrow=none;startFill=0;endArrow=classic;endFill=1;" parent="1" source="KEhzl8udHTvsiTRnRBnp-1402" edge="1">
          <mxGeometry relative="1" as="geometry">
            <mxPoint x="119.66666666666674" y="1160.0000000000002" as="targetPoint" />
          </mxGeometry>
        </mxCell>
        <mxCell id="KEhzl8udHTvsiTRnRBnp-1402" value="获取骑手信息" style="rounded=1;whiteSpace=wrap;html=1;" parent="1" vertex="1">
          <mxGeometry x="70" y="1080" width="100" height="50" as="geometry" />
        </mxCell>
        <mxCell id="KEhzl8udHTvsiTRnRBnp-1405" value="" style="edgeStyle=orthogonalEdgeStyle;rounded=0;orthogonalLoop=1;jettySize=auto;html=1;entryX=0.5;entryY=0;entryDx=0;entryDy=0;" parent="1" source="KEhzl8udHTvsiTRnRBnp-1403" target="KEhzl8udHTvsiTRnRBnp-1406" edge="1">
          <mxGeometry relative="1" as="geometry">
            <mxPoint x="250" y="1160" as="targetPoint" />
            <Array as="points">
              <mxPoint x="250" y="1160" />
              <mxPoint x="250" y="1160" />
            </Array>
          </mxGeometry>
        </mxCell>
        <mxCell id="KEhzl8udHTvsiTRnRBnp-1403" value="用户可自行选择退款" style="rounded=1;whiteSpace=wrap;html=1;" parent="1" vertex="1">
          <mxGeometry x="200" y="1080" width="100" height="50" as="geometry" />
        </mxCell>
        <mxCell id="KEhzl8udHTvsiTRnRBnp-1408" style="edgeStyle=orthogonalEdgeStyle;rounded=0;orthogonalLoop=1;jettySize=auto;html=1;exitX=0.5;exitY=1;exitDx=0;exitDy=0;entryX=0.5;entryY=0;entryDx=0;entryDy=0;" parent="1" source="KEhzl8udHTvsiTRnRBnp-1406" target="KEhzl8udHTvsiTRnRBnp-1412" edge="1">
          <mxGeometry relative="1" as="geometry">
            <mxPoint x="250.33333333333348" y="1240" as="targetPoint" />
          </mxGeometry>
        </mxCell>
        <mxCell id="KEhzl8udHTvsiTRnRBnp-1415" value="是" style="edgeLabel;html=1;align=center;verticalAlign=middle;resizable=0;points=[];" parent="KEhzl8udHTvsiTRnRBnp-1408" vertex="1" connectable="0">
          <mxGeometry x="-0.3482" y="1" relative="1" as="geometry">
            <mxPoint as="offset" />
          </mxGeometry>
        </mxCell>
        <mxCell id="KEhzl8udHTvsiTRnRBnp-1413" style="edgeStyle=orthogonalEdgeStyle;rounded=0;orthogonalLoop=1;jettySize=auto;html=1;exitX=1;exitY=0.5;exitDx=0;exitDy=0;entryX=1;entryY=0.5;entryDx=0;entryDy=0;" parent="1" source="KEhzl8udHTvsiTRnRBnp-1406" target="KEhzl8udHTvsiTRnRBnp-1391" edge="1">
          <mxGeometry relative="1" as="geometry">
            <mxPoint x="240" y="910" as="targetPoint" />
            <Array as="points">
              <mxPoint x="330" y="1190" />
              <mxPoint x="330" y="925" />
            </Array>
          </mxGeometry>
        </mxCell>
        <mxCell id="KEhzl8udHTvsiTRnRBnp-1416" value="否" style="edgeLabel;html=1;align=center;verticalAlign=middle;resizable=0;points=[];" parent="KEhzl8udHTvsiTRnRBnp-1413" vertex="1" connectable="0">
          <mxGeometry x="-0.157" y="-3" relative="1" as="geometry">
            <mxPoint as="offset" />
          </mxGeometry>
        </mxCell>
        <mxCell id="KEhzl8udHTvsiTRnRBnp-1406" value="用户是否取消订单" style="rhombus;whiteSpace=wrap;html=1;rounded=1;" parent="1" vertex="1">
          <mxGeometry x="210" y="1160" width="80" height="60" as="geometry" />
        </mxCell>
        <mxCell id="KEhzl8udHTvsiTRnRBnp-1412" value="平台自动退款" style="rounded=1;whiteSpace=wrap;html=1;" parent="1" vertex="1">
          <mxGeometry x="200" y="1250" width="100" height="50" as="geometry" />
        </mxCell>
        <mxCell id="itn4VVWf9__hn8ElCKPR-9" style="edgeStyle=orthogonalEdgeStyle;rounded=0;orthogonalLoop=1;jettySize=auto;html=1;exitX=0.5;exitY=1;exitDx=0;exitDy=0;entryX=0.5;entryY=0;entryDx=0;entryDy=0;startArrow=none;startFill=0;endArrow=classic;endFill=1;" parent="1" source="KEhzl8udHTvsiTRnRBnp-1422" target="KEhzl8udHTvsiTRnRBnp-1434" edge="1">
          <mxGeometry relative="1" as="geometry" />
        </mxCell>
        <mxCell id="KEhzl8udHTvsiTRnRBnp-1422" value="查看商品信息" style="rounded=1;whiteSpace=wrap;html=1;" parent="1" vertex="1">
          <mxGeometry x="420" y="670" width="100" height="50" as="geometry" />
        </mxCell>
        <mxCell id="KEhzl8udHTvsiTRnRBnp-1431" value="" style="endArrow=none;html=1;startArrow=classic;startFill=1;" parent="1" edge="1">
          <mxGeometry width="50" height="50" relative="1" as="geometry">
            <mxPoint x="703" y="690" as="sourcePoint" />
            <mxPoint x="703" y="630" as="targetPoint" />
          </mxGeometry>
        </mxCell>
        <mxCell id="KEhzl8udHTvsiTRnRBnp-1432" value="" style="endArrow=none;html=1;endFill=0;startArrow=classic;startFill=1;" parent="1" target="itn4VVWf9__hn8ElCKPR-5" edge="1">
          <mxGeometry width="50" height="50" relative="1" as="geometry">
            <mxPoint x="990" y="675" as="sourcePoint" />
            <mxPoint x="990" y="615" as="targetPoint" />
          </mxGeometry>
        </mxCell>
        <mxCell id="KEhzl8udHTvsiTRnRBnp-1437" style="edgeStyle=orthogonalEdgeStyle;rounded=0;orthogonalLoop=1;jettySize=auto;html=1;exitX=0.5;exitY=1;exitDx=0;exitDy=0;" parent="1" source="KEhzl8udHTvsiTRnRBnp-1434" edge="1">
          <mxGeometry relative="1" as="geometry">
            <mxPoint x="470" y="850" as="targetPoint" />
          </mxGeometry>
        </mxCell>
        <mxCell id="KEhzl8udHTvsiTRnRBnp-1434" value="编辑商品信息" style="rounded=1;whiteSpace=wrap;html=1;" parent="1" vertex="1">
          <mxGeometry x="420" y="760" width="100" height="50" as="geometry" />
        </mxCell>
        <mxCell id="KEhzl8udHTvsiTRnRBnp-1439" style="edgeStyle=orthogonalEdgeStyle;rounded=0;orthogonalLoop=1;jettySize=auto;html=1;exitX=0.5;exitY=1;exitDx=0;exitDy=0;" parent="1" source="KEhzl8udHTvsiTRnRBnp-1435" edge="1">
          <mxGeometry relative="1" as="geometry">
            <mxPoint x="700" y="770" as="targetPoint" />
          </mxGeometry>
        </mxCell>
        <mxCell id="KEhzl8udHTvsiTRnRBnp-1435" value="删除商品" style="rounded=1;whiteSpace=wrap;html=1;" parent="1" vertex="1">
          <mxGeometry x="650" y="690" width="100" height="50" as="geometry" />
        </mxCell>
        <mxCell id="itn4VVWf9__hn8ElCKPR-10" style="edgeStyle=orthogonalEdgeStyle;rounded=0;orthogonalLoop=1;jettySize=auto;html=1;exitX=0.5;exitY=1;exitDx=0;exitDy=0;startArrow=none;startFill=0;endArrow=classic;endFill=1;" parent="1" source="KEhzl8udHTvsiTRnRBnp-1436" edge="1">
          <mxGeometry relative="1" as="geometry">
            <mxPoint x="990" y="765" as="targetPoint" />
          </mxGeometry>
        </mxCell>
        <mxCell id="KEhzl8udHTvsiTRnRBnp-1436" value="条件查询商品" style="rounded=1;whiteSpace=wrap;html=1;" parent="1" vertex="1">
          <mxGeometry x="940" y="675" width="100" height="50" as="geometry" />
        </mxCell>
        <mxCell id="KEhzl8udHTvsiTRnRBnp-1447" value="" style="edgeStyle=orthogonalEdgeStyle;rounded=0;orthogonalLoop=1;jettySize=auto;html=1;entryX=0.5;entryY=0;entryDx=0;entryDy=0;" parent="1" source="KEhzl8udHTvsiTRnRBnp-1438" target="KEhzl8udHTvsiTRnRBnp-1448" edge="1">
          <mxGeometry relative="1" as="geometry">
            <mxPoint x="470" y="1015" as="targetPoint" />
          </mxGeometry>
        </mxCell>
        <mxCell id="KEhzl8udHTvsiTRnRBnp-1438" value="修改商品信息" style="rounded=1;whiteSpace=wrap;html=1;" parent="1" vertex="1">
          <mxGeometry x="420" y="940" width="100" height="50" as="geometry" />
        </mxCell>
        <mxCell id="KEhzl8udHTvsiTRnRBnp-1441" style="edgeStyle=orthogonalEdgeStyle;rounded=0;orthogonalLoop=1;jettySize=auto;html=1;exitX=0.5;exitY=1;exitDx=0;exitDy=0;" parent="1" source="KEhzl8udHTvsiTRnRBnp-1440" edge="1">
          <mxGeometry relative="1" as="geometry">
            <mxPoint x="700" y="850" as="targetPoint" />
          </mxGeometry>
        </mxCell>
        <mxCell id="itn4VVWf9__hn8ElCKPR-55" value="是" style="edgeLabel;html=1;align=center;verticalAlign=middle;resizable=0;points=[];" parent="KEhzl8udHTvsiTRnRBnp-1441" vertex="1" connectable="0">
          <mxGeometry x="-0.5333" y="-1" relative="1" as="geometry">
            <mxPoint as="offset" />
          </mxGeometry>
        </mxCell>
        <mxCell id="itn4VVWf9__hn8ElCKPR-51" style="edgeStyle=orthogonalEdgeStyle;rounded=0;orthogonalLoop=1;jettySize=auto;html=1;exitX=1;exitY=0.5;exitDx=0;exitDy=0;entryX=1;entryY=0.5;entryDx=0;entryDy=0;startArrow=none;startFill=0;endArrow=classic;endFill=1;" parent="1" source="KEhzl8udHTvsiTRnRBnp-1440" target="itn4VVWf9__hn8ElCKPR-4" edge="1">
          <mxGeometry relative="1" as="geometry">
            <Array as="points">
              <mxPoint x="780" y="798" />
              <mxPoint x="780" y="610" />
            </Array>
          </mxGeometry>
        </mxCell>
        <mxCell id="itn4VVWf9__hn8ElCKPR-54" value="否" style="edgeLabel;html=1;align=center;verticalAlign=middle;resizable=0;points=[];" parent="itn4VVWf9__hn8ElCKPR-51" vertex="1" connectable="0">
          <mxGeometry x="-0.0744" y="2" relative="1" as="geometry">
            <mxPoint as="offset" />
          </mxGeometry>
        </mxCell>
        <mxCell id="KEhzl8udHTvsiTRnRBnp-1440" value="是否删除成功" style="rhombus;whiteSpace=wrap;html=1;rounded=1;" parent="1" vertex="1">
          <mxGeometry x="660" y="770" width="80" height="55" as="geometry" />
        </mxCell>
        <mxCell id="itn4VVWf9__hn8ElCKPR-53" style="edgeStyle=orthogonalEdgeStyle;rounded=0;orthogonalLoop=1;jettySize=auto;html=1;exitX=0.5;exitY=1;exitDx=0;exitDy=0;entryX=0.5;entryY=0;entryDx=0;entryDy=0;startArrow=none;startFill=0;endArrow=classic;endFill=1;" parent="1" source="KEhzl8udHTvsiTRnRBnp-1443" target="itn4VVWf9__hn8ElCKPR-52" edge="1">
          <mxGeometry relative="1" as="geometry" />
        </mxCell>
        <mxCell id="KEhzl8udHTvsiTRnRBnp-1443" value="删除状态修改成功" style="rounded=1;whiteSpace=wrap;html=1;" parent="1" vertex="1">
          <mxGeometry x="650" y="850" width="100" height="50" as="geometry" />
        </mxCell>
        <mxCell id="KEhzl8udHTvsiTRnRBnp-1455" style="edgeStyle=orthogonalEdgeStyle;rounded=0;orthogonalLoop=1;jettySize=auto;html=1;exitX=0.5;exitY=1;exitDx=0;exitDy=0;" parent="1" source="KEhzl8udHTvsiTRnRBnp-1448" edge="1">
          <mxGeometry relative="1" as="geometry">
            <mxPoint x="470" y="1100" as="targetPoint" />
          </mxGeometry>
        </mxCell>
        <mxCell id="KEhzl8udHTvsiTRnRBnp-1458" value="修改成功" style="edgeLabel;html=1;align=center;verticalAlign=middle;resizable=0;points=[];" parent="KEhzl8udHTvsiTRnRBnp-1455" vertex="1" connectable="0">
          <mxGeometry x="-0.2" y="-1" relative="1" as="geometry">
            <mxPoint as="offset" />
          </mxGeometry>
        </mxCell>
        <mxCell id="KEhzl8udHTvsiTRnRBnp-1459" style="edgeStyle=orthogonalEdgeStyle;rounded=0;orthogonalLoop=1;jettySize=auto;html=1;exitX=1;exitY=0.5;exitDx=0;exitDy=0;entryX=1;entryY=0.5;entryDx=0;entryDy=0;" parent="1" source="KEhzl8udHTvsiTRnRBnp-1448" target="KEhzl8udHTvsiTRnRBnp-1438" edge="1">
          <mxGeometry relative="1" as="geometry">
            <mxPoint x="590" y="1100" as="targetPoint" />
          </mxGeometry>
        </mxCell>
        <mxCell id="KEhzl8udHTvsiTRnRBnp-1461" value="修改失败" style="edgeLabel;html=1;align=center;verticalAlign=middle;resizable=0;points=[];" parent="KEhzl8udHTvsiTRnRBnp-1459" vertex="1" connectable="0">
          <mxGeometry x="-0.1588" y="-1" relative="1" as="geometry">
            <mxPoint as="offset" />
          </mxGeometry>
        </mxCell>
        <mxCell id="KEhzl8udHTvsiTRnRBnp-1448" value="是否修改成功" style="rhombus;whiteSpace=wrap;html=1;rounded=1;" parent="1" vertex="1">
          <mxGeometry x="430" y="1015" width="80" height="55" as="geometry" />
        </mxCell>
        <mxCell id="KEhzl8udHTvsiTRnRBnp-1450" style="edgeStyle=orthogonalEdgeStyle;rounded=0;orthogonalLoop=1;jettySize=auto;html=1;exitX=0.5;exitY=1;exitDx=0;exitDy=0;entryX=0.5;entryY=0;entryDx=0;entryDy=0;" parent="1" source="KEhzl8udHTvsiTRnRBnp-1449" target="KEhzl8udHTvsiTRnRBnp-1438" edge="1">
          <mxGeometry relative="1" as="geometry" />
        </mxCell>
        <mxCell id="KEhzl8udHTvsiTRnRBnp-1451" value="查询成功" style="edgeLabel;html=1;align=center;verticalAlign=middle;resizable=0;points=[];" parent="KEhzl8udHTvsiTRnRBnp-1450" vertex="1" connectable="0">
          <mxGeometry x="-0.2" y="1" relative="1" as="geometry">
            <mxPoint as="offset" />
          </mxGeometry>
        </mxCell>
        <mxCell id="KEhzl8udHTvsiTRnRBnp-1452" style="edgeStyle=orthogonalEdgeStyle;rounded=0;orthogonalLoop=1;jettySize=auto;html=1;exitX=1;exitY=0.5;exitDx=0;exitDy=0;entryX=1;entryY=0.5;entryDx=0;entryDy=0;" parent="1" source="KEhzl8udHTvsiTRnRBnp-1449" target="KEhzl8udHTvsiTRnRBnp-1434" edge="1">
          <mxGeometry relative="1" as="geometry">
            <mxPoint x="570" y="920" as="targetPoint" />
          </mxGeometry>
        </mxCell>
        <mxCell id="KEhzl8udHTvsiTRnRBnp-1454" value="查询失败" style="edgeLabel;html=1;align=center;verticalAlign=middle;resizable=0;points=[];" parent="KEhzl8udHTvsiTRnRBnp-1452" vertex="1" connectable="0">
          <mxGeometry x="-0.0449" relative="1" as="geometry">
            <mxPoint as="offset" />
          </mxGeometry>
        </mxCell>
        <mxCell id="KEhzl8udHTvsiTRnRBnp-1449" value="是否查询成功" style="rhombus;whiteSpace=wrap;html=1;rounded=1;" parent="1" vertex="1">
          <mxGeometry x="430" y="850" width="80" height="55" as="geometry" />
        </mxCell>
        <mxCell id="itn4VVWf9__hn8ElCKPR-45" style="edgeStyle=orthogonalEdgeStyle;rounded=0;orthogonalLoop=1;jettySize=auto;html=1;exitX=0.5;exitY=1;exitDx=0;exitDy=0;startArrow=none;startFill=0;endArrow=classic;endFill=1;" parent="1" source="KEhzl8udHTvsiTRnRBnp-1457" edge="1">
          <mxGeometry relative="1" as="geometry">
            <mxPoint x="470.3333333333335" y="1170" as="targetPoint" />
          </mxGeometry>
        </mxCell>
        <mxCell id="KEhzl8udHTvsiTRnRBnp-1457" value="修改成功" style="rounded=1;whiteSpace=wrap;html=1;" parent="1" vertex="1">
          <mxGeometry x="420" y="1100" width="100" height="50" as="geometry" />
        </mxCell>
        <mxCell id="KEhzl8udHTvsiTRnRBnp-1471" style="edgeStyle=orthogonalEdgeStyle;rounded=0;orthogonalLoop=1;jettySize=auto;html=1;exitX=0.5;exitY=1;exitDx=0;exitDy=0;endArrow=classic;endFill=1;" parent="1" source="KEhzl8udHTvsiTRnRBnp-1470" edge="1">
          <mxGeometry relative="1" as="geometry">
            <mxPoint x="1239.7142857142858" y="765" as="targetPoint" />
          </mxGeometry>
        </mxCell>
        <mxCell id="KEhzl8udHTvsiTRnRBnp-1470" value="查看商家个人信息" style="rounded=1;whiteSpace=wrap;html=1;" parent="1" vertex="1">
          <mxGeometry x="1190" y="675" width="100" height="50" as="geometry" />
        </mxCell>
        <mxCell id="KEhzl8udHTvsiTRnRBnp-1474" style="edgeStyle=orthogonalEdgeStyle;rounded=0;orthogonalLoop=1;jettySize=auto;html=1;exitX=1;exitY=0.5;exitDx=0;exitDy=0;entryX=1;entryY=0.5;entryDx=0;entryDy=0;endArrow=classic;endFill=1;" parent="1" source="KEhzl8udHTvsiTRnRBnp-1473" target="KEhzl8udHTvsiTRnRBnp-1470" edge="1">
          <mxGeometry relative="1" as="geometry" />
        </mxCell>
        <mxCell id="KEhzl8udHTvsiTRnRBnp-1475" value="编辑失败" style="edgeLabel;html=1;align=center;verticalAlign=middle;resizable=0;points=[];" parent="KEhzl8udHTvsiTRnRBnp-1474" vertex="1" connectable="0">
          <mxGeometry x="-0.0901" y="-3" relative="1" as="geometry">
            <mxPoint y="-1" as="offset" />
          </mxGeometry>
        </mxCell>
        <mxCell id="KEhzl8udHTvsiTRnRBnp-1476" style="edgeStyle=orthogonalEdgeStyle;rounded=0;orthogonalLoop=1;jettySize=auto;html=1;exitX=0.5;exitY=1;exitDx=0;exitDy=0;endArrow=classic;endFill=1;" parent="1" source="KEhzl8udHTvsiTRnRBnp-1473" edge="1">
          <mxGeometry relative="1" as="geometry">
            <mxPoint x="1239.7142857142858" y="865" as="targetPoint" />
          </mxGeometry>
        </mxCell>
        <mxCell id="KEhzl8udHTvsiTRnRBnp-1477" value="编辑成功" style="edgeLabel;html=1;align=center;verticalAlign=middle;resizable=0;points=[];" parent="KEhzl8udHTvsiTRnRBnp-1476" vertex="1" connectable="0">
          <mxGeometry x="-0.142" y="1" relative="1" as="geometry">
            <mxPoint as="offset" />
          </mxGeometry>
        </mxCell>
        <mxCell id="KEhzl8udHTvsiTRnRBnp-1473" value="编辑商家个人信息" style="rounded=1;whiteSpace=wrap;html=1;" parent="1" vertex="1">
          <mxGeometry x="1190" y="765" width="100" height="50" as="geometry" />
        </mxCell>
        <mxCell id="KEhzl8udHTvsiTRnRBnp-1479" style="edgeStyle=orthogonalEdgeStyle;rounded=0;orthogonalLoop=1;jettySize=auto;html=1;exitX=0.5;exitY=1;exitDx=0;exitDy=0;endArrow=classic;endFill=1;" parent="1" source="KEhzl8udHTvsiTRnRBnp-1478" edge="1">
          <mxGeometry relative="1" as="geometry">
            <mxPoint x="1239.7142857142858" y="945" as="targetPoint" />
          </mxGeometry>
        </mxCell>
        <mxCell id="KEhzl8udHTvsiTRnRBnp-1478" value="修改个人信息" style="rounded=1;whiteSpace=wrap;html=1;" parent="1" vertex="1">
          <mxGeometry x="1190" y="865" width="100" height="50" as="geometry" />
        </mxCell>
        <mxCell id="KEhzl8udHTvsiTRnRBnp-1481" style="edgeStyle=orthogonalEdgeStyle;rounded=0;orthogonalLoop=1;jettySize=auto;html=1;exitX=0.5;exitY=1;exitDx=0;exitDy=0;endArrow=classic;endFill=1;" parent="1" source="KEhzl8udHTvsiTRnRBnp-1480" edge="1">
          <mxGeometry relative="1" as="geometry">
            <mxPoint x="1239.7142857142858" y="1025" as="targetPoint" />
          </mxGeometry>
        </mxCell>
        <mxCell id="KEhzl8udHTvsiTRnRBnp-1482" style="edgeStyle=orthogonalEdgeStyle;rounded=0;orthogonalLoop=1;jettySize=auto;html=1;exitX=1;exitY=0.5;exitDx=0;exitDy=0;startArrow=none;startFill=0;endArrow=classic;endFill=1;entryX=1;entryY=0.75;entryDx=0;entryDy=0;" parent="1" source="KEhzl8udHTvsiTRnRBnp-1480" target="KEhzl8udHTvsiTRnRBnp-1473" edge="1">
          <mxGeometry relative="1" as="geometry">
            <mxPoint x="1350" y="1015" as="targetPoint" />
            <Array as="points">
              <mxPoint x="1330" y="967" />
              <mxPoint x="1330" y="802" />
            </Array>
          </mxGeometry>
        </mxCell>
        <mxCell id="KEhzl8udHTvsiTRnRBnp-1485" value="修改失败" style="edgeLabel;html=1;align=center;verticalAlign=middle;resizable=0;points=[];" parent="KEhzl8udHTvsiTRnRBnp-1482" vertex="1" connectable="0">
          <mxGeometry x="-0.1415" y="2" relative="1" as="geometry">
            <mxPoint y="1" as="offset" />
          </mxGeometry>
        </mxCell>
        <mxCell id="KEhzl8udHTvsiTRnRBnp-1480" value="是否修改成功" style="rhombus;whiteSpace=wrap;html=1;rounded=1;" parent="1" vertex="1">
          <mxGeometry x="1200" y="940" width="80" height="55" as="geometry" />
        </mxCell>
        <mxCell id="itn4VVWf9__hn8ElCKPR-50" style="edgeStyle=orthogonalEdgeStyle;rounded=0;orthogonalLoop=1;jettySize=auto;html=1;exitX=0.5;exitY=1;exitDx=0;exitDy=0;entryX=0.5;entryY=0;entryDx=0;entryDy=0;startArrow=none;startFill=0;endArrow=classic;endFill=1;" parent="1" source="KEhzl8udHTvsiTRnRBnp-1483" target="itn4VVWf9__hn8ElCKPR-49" edge="1">
          <mxGeometry relative="1" as="geometry" />
        </mxCell>
        <mxCell id="KEhzl8udHTvsiTRnRBnp-1483" value="修改成功" style="rounded=1;whiteSpace=wrap;html=1;" parent="1" vertex="1">
          <mxGeometry x="1190" y="1025" width="100" height="50" as="geometry" />
        </mxCell>
        <mxCell id="KEhzl8udHTvsiTRnRBnp-1490" style="edgeStyle=orthogonalEdgeStyle;rounded=0;orthogonalLoop=1;jettySize=auto;html=1;exitX=0.5;exitY=0;exitDx=0;exitDy=0;entryX=1;entryY=0.5;entryDx=0;entryDy=0;startArrow=none;startFill=0;endArrow=classic;endFill=1;" parent="1" source="KEhzl8udHTvsiTRnRBnp-1488" target="itn4VVWf9__hn8ElCKPR-6" edge="1">
          <mxGeometry relative="1" as="geometry" />
        </mxCell>
        <mxCell id="KEhzl8udHTvsiTRnRBnp-1488" value="填写拒接原因" style="rounded=1;whiteSpace=wrap;html=1;" parent="1" vertex="1">
          <mxGeometry x="200" y="822.5" width="100" height="50" as="geometry" />
        </mxCell>
        <mxCell id="KEhzl8udHTvsiTRnRBnp-1493" style="edgeStyle=orthogonalEdgeStyle;rounded=0;orthogonalLoop=1;jettySize=auto;html=1;exitX=0.5;exitY=1;exitDx=0;exitDy=0;entryX=0.5;entryY=0;entryDx=0;entryDy=0;startArrow=none;startFill=0;endArrow=classic;endFill=1;" parent="1" source="KEhzl8udHTvsiTRnRBnp-1491" edge="1">
          <mxGeometry relative="1" as="geometry">
            <mxPoint x="133" y="1690" as="targetPoint" />
          </mxGeometry>
        </mxCell>
        <mxCell id="KEhzl8udHTvsiTRnRBnp-1491" value="开始" style="rounded=1;whiteSpace=wrap;html=1;" parent="1" vertex="1">
          <mxGeometry x="83" y="1590" width="100" height="50" as="geometry" />
        </mxCell>
        <mxCell id="KEhzl8udHTvsiTRnRBnp-1499" style="edgeStyle=orthogonalEdgeStyle;rounded=0;orthogonalLoop=1;jettySize=auto;html=1;exitX=0.5;exitY=1;exitDx=0;exitDy=0;startArrow=none;startFill=0;endArrow=classic;endFill=1;" parent="1" source="KEhzl8udHTvsiTRnRBnp-1498" edge="1">
          <mxGeometry relative="1" as="geometry">
            <mxPoint x="140.71428571428578" y="1770" as="targetPoint" />
          </mxGeometry>
        </mxCell>
        <mxCell id="KEhzl8udHTvsiTRnRBnp-1498" value="查看订单信息（按距离正序）" style="rounded=1;whiteSpace=wrap;html=1;" parent="1" vertex="1">
          <mxGeometry x="91" y="1690" width="100" height="50" as="geometry" />
        </mxCell>
        <mxCell id="KEhzl8udHTvsiTRnRBnp-1501" style="edgeStyle=orthogonalEdgeStyle;rounded=0;orthogonalLoop=1;jettySize=auto;html=1;exitX=0;exitY=0.5;exitDx=0;exitDy=0;entryX=0;entryY=0.5;entryDx=0;entryDy=0;startArrow=none;startFill=0;endArrow=classic;endFill=1;" parent="1" source="KEhzl8udHTvsiTRnRBnp-1500" target="KEhzl8udHTvsiTRnRBnp-1498" edge="1">
          <mxGeometry relative="1" as="geometry" />
        </mxCell>
        <mxCell id="KEhzl8udHTvsiTRnRBnp-1502" value="否" style="edgeLabel;html=1;align=center;verticalAlign=middle;resizable=0;points=[];" parent="KEhzl8udHTvsiTRnRBnp-1501" vertex="1" connectable="0">
          <mxGeometry x="0.0388" y="-1" relative="1" as="geometry">
            <mxPoint as="offset" />
          </mxGeometry>
        </mxCell>
        <mxCell id="KEhzl8udHTvsiTRnRBnp-1503" style="edgeStyle=orthogonalEdgeStyle;rounded=0;orthogonalLoop=1;jettySize=auto;html=1;exitX=0.5;exitY=1;exitDx=0;exitDy=0;startArrow=none;startFill=0;endArrow=classic;endFill=1;" parent="1" source="KEhzl8udHTvsiTRnRBnp-1500" edge="1">
          <mxGeometry relative="1" as="geometry">
            <mxPoint x="140.71428571428578" y="1880" as="targetPoint" />
          </mxGeometry>
        </mxCell>
        <mxCell id="KEhzl8udHTvsiTRnRBnp-1504" value="是" style="edgeLabel;html=1;align=center;verticalAlign=middle;resizable=0;points=[];" parent="KEhzl8udHTvsiTRnRBnp-1503" vertex="1" connectable="0">
          <mxGeometry x="-0.142" relative="1" as="geometry">
            <mxPoint y="-1" as="offset" />
          </mxGeometry>
        </mxCell>
        <mxCell id="KEhzl8udHTvsiTRnRBnp-1500" value="是否接单" style="rhombus;whiteSpace=wrap;html=1;rounded=1;" parent="1" vertex="1">
          <mxGeometry x="96" y="1770" width="90" height="65" as="geometry" />
        </mxCell>
        <mxCell id="KEhzl8udHTvsiTRnRBnp-1507" style="edgeStyle=orthogonalEdgeStyle;rounded=0;orthogonalLoop=1;jettySize=auto;html=1;exitX=1;exitY=0.5;exitDx=0;exitDy=0;startArrow=none;startFill=0;endArrow=classic;endFill=1;" parent="1" source="KEhzl8udHTvsiTRnRBnp-1505" edge="1">
          <mxGeometry relative="1" as="geometry">
            <mxPoint x="236" y="2009.4285714285716" as="targetPoint" />
          </mxGeometry>
        </mxCell>
        <mxCell id="KEhzl8udHTvsiTRnRBnp-1505" value="获取用户信息/商家信息" style="rounded=1;whiteSpace=wrap;html=1;" parent="1" vertex="1">
          <mxGeometry x="91" y="1985" width="100" height="50" as="geometry" />
        </mxCell>
        <mxCell id="KEhzl8udHTvsiTRnRBnp-1509" style="edgeStyle=orthogonalEdgeStyle;rounded=0;orthogonalLoop=1;jettySize=auto;html=1;exitX=1;exitY=0.5;exitDx=0;exitDy=0;startArrow=none;startFill=0;endArrow=classic;endFill=1;" parent="1" source="KEhzl8udHTvsiTRnRBnp-1508" edge="1">
          <mxGeometry relative="1" as="geometry">
            <mxPoint x="376" y="2009.4285714285716" as="targetPoint" />
          </mxGeometry>
        </mxCell>
        <mxCell id="KEhzl8udHTvsiTRnRBnp-1508" value="抵达商家状态" style="rounded=1;whiteSpace=wrap;html=1;" parent="1" vertex="1">
          <mxGeometry x="236" y="1985" width="100" height="50" as="geometry" />
        </mxCell>
        <mxCell id="KEhzl8udHTvsiTRnRBnp-1511" style="edgeStyle=orthogonalEdgeStyle;rounded=0;orthogonalLoop=1;jettySize=auto;html=1;exitX=1;exitY=0.5;exitDx=0;exitDy=0;startArrow=none;startFill=0;endArrow=classic;endFill=1;" parent="1" source="KEhzl8udHTvsiTRnRBnp-1510" edge="1">
          <mxGeometry relative="1" as="geometry">
            <mxPoint x="516" y="2009.4285714285716" as="targetPoint" />
          </mxGeometry>
        </mxCell>
        <mxCell id="KEhzl8udHTvsiTRnRBnp-1510" value="抵达商家状态" style="rounded=1;whiteSpace=wrap;html=1;" parent="1" vertex="1">
          <mxGeometry x="376" y="1985" width="100" height="50" as="geometry" />
        </mxCell>
        <mxCell id="KEhzl8udHTvsiTRnRBnp-1514" style="edgeStyle=orthogonalEdgeStyle;rounded=0;orthogonalLoop=1;jettySize=auto;html=1;exitX=1;exitY=0.5;exitDx=0;exitDy=0;startArrow=none;startFill=0;endArrow=classic;endFill=1;" parent="1" source="KEhzl8udHTvsiTRnRBnp-1513" edge="1">
          <mxGeometry relative="1" as="geometry">
            <mxPoint x="656" y="2009.4285714285716" as="targetPoint" />
          </mxGeometry>
        </mxCell>
        <mxCell id="KEhzl8udHTvsiTRnRBnp-1513" value="取走餐食状态" style="rounded=1;whiteSpace=wrap;html=1;" parent="1" vertex="1">
          <mxGeometry x="516" y="1985" width="100" height="50" as="geometry" />
        </mxCell>
        <mxCell id="itn4VVWf9__hn8ElCKPR-44" style="edgeStyle=orthogonalEdgeStyle;rounded=0;orthogonalLoop=1;jettySize=auto;html=1;exitX=1;exitY=0.5;exitDx=0;exitDy=0;entryX=0;entryY=0.5;entryDx=0;entryDy=0;startArrow=none;startFill=0;endArrow=classic;endFill=1;" parent="1" source="KEhzl8udHTvsiTRnRBnp-1515" target="itn4VVWf9__hn8ElCKPR-43" edge="1">
          <mxGeometry relative="1" as="geometry" />
        </mxCell>
        <mxCell id="KEhzl8udHTvsiTRnRBnp-1515" value="交付订单" style="rounded=1;whiteSpace=wrap;html=1;" parent="1" vertex="1">
          <mxGeometry x="656" y="1985" width="100" height="50" as="geometry" />
        </mxCell>
        <mxCell id="itn4VVWf9__hn8ElCKPR-38" style="edgeStyle=orthogonalEdgeStyle;rounded=0;orthogonalLoop=1;jettySize=auto;html=1;exitX=0.5;exitY=1;exitDx=0;exitDy=0;entryX=0.5;entryY=0;entryDx=0;entryDy=0;startArrow=none;startFill=0;endArrow=classic;endFill=1;" parent="1" source="KEhzl8udHTvsiTRnRBnp-1519" target="KEhzl8udHTvsiTRnRBnp-1521" edge="1">
          <mxGeometry relative="1" as="geometry" />
        </mxCell>
        <mxCell id="KEhzl8udHTvsiTRnRBnp-1519" value="查看已接订单信息" style="rounded=1;whiteSpace=wrap;html=1;" parent="1" vertex="1">
          <mxGeometry x="1000" y="1640" width="100" height="50" as="geometry" />
        </mxCell>
        <mxCell id="itn4VVWf9__hn8ElCKPR-39" style="edgeStyle=orthogonalEdgeStyle;rounded=0;orthogonalLoop=1;jettySize=auto;html=1;exitX=0.5;exitY=1;exitDx=0;exitDy=0;startArrow=none;startFill=0;endArrow=classic;endFill=1;" parent="1" source="KEhzl8udHTvsiTRnRBnp-1521" target="KEhzl8udHTvsiTRnRBnp-1523" edge="1">
          <mxGeometry relative="1" as="geometry" />
        </mxCell>
        <mxCell id="KEhzl8udHTvsiTRnRBnp-1521" value="修改订单状态" style="rounded=1;whiteSpace=wrap;html=1;" parent="1" vertex="1">
          <mxGeometry x="1000" y="1730" width="100" height="50" as="geometry" />
        </mxCell>
        <mxCell id="itn4VVWf9__hn8ElCKPR-40" style="edgeStyle=orthogonalEdgeStyle;rounded=0;orthogonalLoop=1;jettySize=auto;html=1;exitX=0.5;exitY=1;exitDx=0;exitDy=0;entryX=0.5;entryY=0;entryDx=0;entryDy=0;startArrow=none;startFill=0;endArrow=classic;endFill=1;" parent="1" source="KEhzl8udHTvsiTRnRBnp-1523" target="KEhzl8udHTvsiTRnRBnp-1525" edge="1">
          <mxGeometry relative="1" as="geometry" />
        </mxCell>
        <mxCell id="KEhzl8udHTvsiTRnRBnp-1523" value="是否为交付状态" style="rhombus;whiteSpace=wrap;html=1;rounded=1;" parent="1" vertex="1">
          <mxGeometry x="1005" y="1810" width="90" height="65" as="geometry" />
        </mxCell>
        <mxCell id="itn4VVWf9__hn8ElCKPR-41" style="edgeStyle=orthogonalEdgeStyle;rounded=0;orthogonalLoop=1;jettySize=auto;html=1;exitX=0.5;exitY=1;exitDx=0;exitDy=0;startArrow=none;startFill=0;endArrow=classic;endFill=1;" parent="1" source="KEhzl8udHTvsiTRnRBnp-1525" edge="1">
          <mxGeometry relative="1" as="geometry">
            <mxPoint x="1050.3333333333335" y="1980" as="targetPoint" />
          </mxGeometry>
        </mxCell>
        <mxCell id="KEhzl8udHTvsiTRnRBnp-1525" value="交付成功" style="rounded=1;whiteSpace=wrap;html=1;" parent="1" vertex="1">
          <mxGeometry x="1000" y="1905" width="100" height="50" as="geometry" />
        </mxCell>
        <mxCell id="KEhzl8udHTvsiTRnRBnp-1539" style="edgeStyle=orthogonalEdgeStyle;rounded=0;orthogonalLoop=1;jettySize=auto;html=1;exitX=0.5;exitY=1;exitDx=0;exitDy=0;entryX=0.5;entryY=0;entryDx=0;entryDy=0;startArrow=none;startFill=0;endArrow=classic;endFill=1;" parent="1" source="KEhzl8udHTvsiTRnRBnp-1538" target="KEhzl8udHTvsiTRnRBnp-1505" edge="1">
          <mxGeometry relative="1" as="geometry">
            <mxPoint x="146" y="1960" as="sourcePoint" />
          </mxGeometry>
        </mxCell>
        <mxCell id="KEhzl8udHTvsiTRnRBnp-1538" value="是否已接" style="rhombus;whiteSpace=wrap;html=1;rounded=1;" parent="1" vertex="1">
          <mxGeometry x="96" y="1880" width="90" height="65" as="geometry" />
        </mxCell>
        <mxCell id="itn4VVWf9__hn8ElCKPR-2" value="开始" style="rounded=1;whiteSpace=wrap;html=1;" parent="1" vertex="1">
          <mxGeometry x="70" y="570" width="100" height="50" as="geometry" />
        </mxCell>
        <mxCell id="itn4VVWf9__hn8ElCKPR-8" style="edgeStyle=orthogonalEdgeStyle;rounded=0;orthogonalLoop=1;jettySize=auto;html=1;exitX=0.5;exitY=1;exitDx=0;exitDy=0;entryX=0.5;entryY=0;entryDx=0;entryDy=0;startArrow=none;startFill=0;endArrow=classic;endFill=1;" parent="1" source="itn4VVWf9__hn8ElCKPR-3" target="KEhzl8udHTvsiTRnRBnp-1422" edge="1">
          <mxGeometry relative="1" as="geometry" />
        </mxCell>
        <mxCell id="itn4VVWf9__hn8ElCKPR-3" value="开始" style="rounded=1;whiteSpace=wrap;html=1;" parent="1" vertex="1">
          <mxGeometry x="420" y="585" width="100" height="50" as="geometry" />
        </mxCell>
        <mxCell id="itn4VVWf9__hn8ElCKPR-4" value="开始" style="rounded=1;whiteSpace=wrap;html=1;" parent="1" vertex="1">
          <mxGeometry x="650" y="585" width="100" height="50" as="geometry" />
        </mxCell>
        <mxCell id="itn4VVWf9__hn8ElCKPR-5" value="开始" style="rounded=1;whiteSpace=wrap;html=1;" parent="1" vertex="1">
          <mxGeometry x="940" y="585" width="100" height="50" as="geometry" />
        </mxCell>
        <mxCell id="itn4VVWf9__hn8ElCKPR-7" style="edgeStyle=orthogonalEdgeStyle;rounded=0;orthogonalLoop=1;jettySize=auto;html=1;exitX=0.5;exitY=1;exitDx=0;exitDy=0;entryX=0.5;entryY=0;entryDx=0;entryDy=0;" parent="1" source="itn4VVWf9__hn8ElCKPR-6" target="KEhzl8udHTvsiTRnRBnp-1387" edge="1">
          <mxGeometry relative="1" as="geometry" />
        </mxCell>
        <mxCell id="itn4VVWf9__hn8ElCKPR-6" value="选定单一订单" style="rounded=1;whiteSpace=wrap;html=1;" parent="1" vertex="1">
          <mxGeometry x="70" y="750" width="100" height="50" as="geometry" />
        </mxCell>
        <mxCell id="itn4VVWf9__hn8ElCKPR-19" style="edgeStyle=orthogonalEdgeStyle;rounded=0;orthogonalLoop=1;jettySize=auto;html=1;exitX=0.5;exitY=1;exitDx=0;exitDy=0;entryX=0.5;entryY=0;entryDx=0;entryDy=0;startArrow=none;startFill=0;endArrow=classic;endFill=1;" parent="1" source="itn4VVWf9__hn8ElCKPR-11" target="itn4VVWf9__hn8ElCKPR-16" edge="1">
          <mxGeometry relative="1" as="geometry" />
        </mxCell>
        <mxCell id="itn4VVWf9__hn8ElCKPR-11" value="高级检索（搜索任意内容）" style="rounded=1;whiteSpace=wrap;html=1;" parent="1" vertex="1">
          <mxGeometry x="940" y="765" width="100" height="50" as="geometry" />
        </mxCell>
        <mxCell id="itn4VVWf9__hn8ElCKPR-13" style="edgeStyle=orthogonalEdgeStyle;rounded=0;orthogonalLoop=1;jettySize=auto;html=1;exitX=0.5;exitY=1;exitDx=0;exitDy=0;entryX=0.5;entryY=0;entryDx=0;entryDy=0;startArrow=none;startFill=0;endArrow=classic;endFill=1;" parent="1" source="itn4VVWf9__hn8ElCKPR-12" target="KEhzl8udHTvsiTRnRBnp-1470" edge="1">
          <mxGeometry relative="1" as="geometry" />
        </mxCell>
        <mxCell id="itn4VVWf9__hn8ElCKPR-12" value="开始" style="rounded=1;whiteSpace=wrap;html=1;" parent="1" vertex="1">
          <mxGeometry x="1190" y="585" width="100" height="50" as="geometry" />
        </mxCell>
        <mxCell id="itn4VVWf9__hn8ElCKPR-14" style="edgeStyle=orthogonalEdgeStyle;rounded=0;orthogonalLoop=1;jettySize=auto;html=1;exitX=0.5;exitY=1;exitDx=0;exitDy=0;" parent="1" source="itn4VVWf9__hn8ElCKPR-16" edge="1">
          <mxGeometry relative="1" as="geometry">
            <mxPoint x="990" y="930" as="targetPoint" />
          </mxGeometry>
        </mxCell>
        <mxCell id="itn4VVWf9__hn8ElCKPR-22" value="是" style="edgeLabel;html=1;align=center;verticalAlign=middle;resizable=0;points=[];" parent="itn4VVWf9__hn8ElCKPR-14" vertex="1" connectable="0">
          <mxGeometry x="-0.2745" y="-1" relative="1" as="geometry">
            <mxPoint as="offset" />
          </mxGeometry>
        </mxCell>
        <mxCell id="itn4VVWf9__hn8ElCKPR-15" style="edgeStyle=orthogonalEdgeStyle;rounded=0;orthogonalLoop=1;jettySize=auto;html=1;exitX=1;exitY=0.5;exitDx=0;exitDy=0;entryX=1;entryY=0.5;entryDx=0;entryDy=0;" parent="1" source="itn4VVWf9__hn8ElCKPR-16" target="itn4VVWf9__hn8ElCKPR-11" edge="1">
          <mxGeometry relative="1" as="geometry">
            <mxPoint x="1100" y="930" as="targetPoint" />
            <Array as="points">
              <mxPoint x="1100" y="878" />
              <mxPoint x="1100" y="790" />
            </Array>
          </mxGeometry>
        </mxCell>
        <mxCell id="itn4VVWf9__hn8ElCKPR-20" value="Text" style="edgeLabel;html=1;align=center;verticalAlign=middle;resizable=0;points=[];" parent="itn4VVWf9__hn8ElCKPR-15" vertex="1" connectable="0">
          <mxGeometry x="-0.4399" relative="1" as="geometry">
            <mxPoint as="offset" />
          </mxGeometry>
        </mxCell>
        <mxCell id="itn4VVWf9__hn8ElCKPR-21" value="否" style="edgeLabel;html=1;align=center;verticalAlign=middle;resizable=0;points=[];" parent="itn4VVWf9__hn8ElCKPR-15" vertex="1" connectable="0">
          <mxGeometry x="-0.4247" y="-1" relative="1" as="geometry">
            <mxPoint as="offset" />
          </mxGeometry>
        </mxCell>
        <mxCell id="itn4VVWf9__hn8ElCKPR-16" value="是否查询成功" style="rhombus;whiteSpace=wrap;html=1;rounded=1;" parent="1" vertex="1">
          <mxGeometry x="950" y="850" width="80" height="55" as="geometry" />
        </mxCell>
        <mxCell id="itn4VVWf9__hn8ElCKPR-48" style="edgeStyle=orthogonalEdgeStyle;rounded=0;orthogonalLoop=1;jettySize=auto;html=1;exitX=0.5;exitY=1;exitDx=0;exitDy=0;entryX=0.5;entryY=0;entryDx=0;entryDy=0;startArrow=none;startFill=0;endArrow=classic;endFill=1;" parent="1" source="itn4VVWf9__hn8ElCKPR-17" target="itn4VVWf9__hn8ElCKPR-47" edge="1">
          <mxGeometry relative="1" as="geometry" />
        </mxCell>
        <mxCell id="itn4VVWf9__hn8ElCKPR-17" value="删除状态修改成功" style="rounded=1;whiteSpace=wrap;html=1;" parent="1" vertex="1">
          <mxGeometry x="940" y="930" width="100" height="50" as="geometry" />
        </mxCell>
        <mxCell id="itn4VVWf9__hn8ElCKPR-31" style="edgeStyle=orthogonalEdgeStyle;rounded=0;orthogonalLoop=1;jettySize=auto;html=1;exitX=0.5;exitY=1;exitDx=0;exitDy=0;startArrow=none;startFill=0;endArrow=classic;endFill=1;" parent="1" source="itn4VVWf9__hn8ElCKPR-25" target="itn4VVWf9__hn8ElCKPR-29" edge="1">
          <mxGeometry relative="1" as="geometry" />
        </mxCell>
        <mxCell id="itn4VVWf9__hn8ElCKPR-25" value="骑手修改订单状态为“已取餐食”（骑手出发）" style="rounded=1;whiteSpace=wrap;html=1;" parent="1" vertex="1">
          <mxGeometry x="70" y="1235" width="100" height="50" as="geometry" />
        </mxCell>
        <mxCell id="itn4VVWf9__hn8ElCKPR-28" style="edgeStyle=orthogonalEdgeStyle;rounded=0;orthogonalLoop=1;jettySize=auto;html=1;exitX=0.5;exitY=1;exitDx=0;exitDy=0;entryX=0.5;entryY=0;entryDx=0;entryDy=0;startArrow=none;startFill=0;endArrow=classic;endFill=1;" parent="1" source="itn4VVWf9__hn8ElCKPR-27" target="itn4VVWf9__hn8ElCKPR-25" edge="1">
          <mxGeometry relative="1" as="geometry" />
        </mxCell>
        <mxCell id="itn4VVWf9__hn8ElCKPR-27" value="骑手修改订单状态为“已到达店铺”（骑手抵达商家）" style="rounded=1;whiteSpace=wrap;html=1;" parent="1" vertex="1">
          <mxGeometry x="70" y="1150" width="100" height="50" as="geometry" />
        </mxCell>
        <mxCell id="itn4VVWf9__hn8ElCKPR-32" style="edgeStyle=orthogonalEdgeStyle;rounded=0;orthogonalLoop=1;jettySize=auto;html=1;exitX=0.5;exitY=1;exitDx=0;exitDy=0;startArrow=none;startFill=0;endArrow=classic;endFill=1;" parent="1" source="itn4VVWf9__hn8ElCKPR-29" edge="1">
          <mxGeometry relative="1" as="geometry">
            <mxPoint x="119.66666666666674" y="1389.9999999999998" as="targetPoint" />
          </mxGeometry>
        </mxCell>
        <mxCell id="itn4VVWf9__hn8ElCKPR-29" value="骑手修改订单状态为“已经交付”（用户接到商品）" style="rounded=1;whiteSpace=wrap;html=1;" parent="1" vertex="1">
          <mxGeometry x="70" y="1310" width="100" height="50" as="geometry" />
        </mxCell>
        <mxCell id="itn4VVWf9__hn8ElCKPR-34" style="edgeStyle=orthogonalEdgeStyle;rounded=0;orthogonalLoop=1;jettySize=auto;html=1;exitX=0.5;exitY=1;exitDx=0;exitDy=0;startArrow=none;startFill=0;endArrow=classic;endFill=1;" parent="1" source="itn4VVWf9__hn8ElCKPR-33" edge="1">
          <mxGeometry relative="1" as="geometry">
            <mxPoint x="119.66666666666674" y="1470" as="targetPoint" />
          </mxGeometry>
        </mxCell>
        <mxCell id="itn4VVWf9__hn8ElCKPR-33" value="用户评价订单" style="rounded=1;whiteSpace=wrap;html=1;" parent="1" vertex="1">
          <mxGeometry x="70" y="1390" width="100" height="50" as="geometry" />
        </mxCell>
        <mxCell id="itn4VVWf9__hn8ElCKPR-35" value="结束" style="rounded=1;whiteSpace=wrap;html=1;" parent="1" vertex="1">
          <mxGeometry x="70" y="1470" width="100" height="50" as="geometry" />
        </mxCell>
        <mxCell id="itn4VVWf9__hn8ElCKPR-37" style="edgeStyle=orthogonalEdgeStyle;rounded=0;orthogonalLoop=1;jettySize=auto;html=1;exitX=0.5;exitY=1;exitDx=0;exitDy=0;entryX=0.5;entryY=0;entryDx=0;entryDy=0;startArrow=none;startFill=0;endArrow=classic;endFill=1;" parent="1" source="itn4VVWf9__hn8ElCKPR-36" target="KEhzl8udHTvsiTRnRBnp-1519" edge="1">
          <mxGeometry relative="1" as="geometry" />
        </mxCell>
        <mxCell id="itn4VVWf9__hn8ElCKPR-36" value="开始" style="rounded=1;whiteSpace=wrap;html=1;" parent="1" vertex="1">
          <mxGeometry x="1000" y="1560" width="100" height="50" as="geometry" />
        </mxCell>
        <mxCell id="itn4VVWf9__hn8ElCKPR-42" value="结束" style="rounded=1;whiteSpace=wrap;html=1;" parent="1" vertex="1">
          <mxGeometry x="1000" y="1980" width="100" height="50" as="geometry" />
        </mxCell>
        <mxCell id="itn4VVWf9__hn8ElCKPR-43" value="结束" style="rounded=1;whiteSpace=wrap;html=1;" parent="1" vertex="1">
          <mxGeometry x="790" y="1985" width="100" height="50" as="geometry" />
        </mxCell>
        <mxCell id="itn4VVWf9__hn8ElCKPR-46" value="结束" style="rounded=1;whiteSpace=wrap;html=1;" parent="1" vertex="1">
          <mxGeometry x="420" y="1170" width="100" height="50" as="geometry" />
        </mxCell>
        <mxCell id="itn4VVWf9__hn8ElCKPR-47" value="结束" style="rounded=1;whiteSpace=wrap;html=1;" parent="1" vertex="1">
          <mxGeometry x="940" y="1025" width="100" height="50" as="geometry" />
        </mxCell>
        <mxCell id="itn4VVWf9__hn8ElCKPR-49" value="结束" style="rounded=1;whiteSpace=wrap;html=1;" parent="1" vertex="1">
          <mxGeometry x="1191" y="1110" width="100" height="50" as="geometry" />
        </mxCell>
        <mxCell id="itn4VVWf9__hn8ElCKPR-52" value="结束" style="rounded=1;whiteSpace=wrap;html=1;" parent="1" vertex="1">
          <mxGeometry x="650" y="940" width="100" height="50" as="geometry" />
        </mxCell>
      </root>
    </mxGraphModel>
  </diagram>
  <diagram id="WFPGbu2dbl2I2z4kgLAo" name="Page-2">
    <mxGraphModel dx="3204" dy="3425" grid="1" gridSize="10" guides="1" tooltips="1" connect="1" arrows="1" fold="1" page="1" pageScale="1" pageWidth="827" pageHeight="1169" math="0" shadow="0">
      <root>
        <mxCell id="bcI5A2F_Ulys4gcZDIDl-0" />
        <mxCell id="bcI5A2F_Ulys4gcZDIDl-1" parent="bcI5A2F_Ulys4gcZDIDl-0" />
        <mxCell id="bcI5A2F_Ulys4gcZDIDl-133" style="edgeStyle=orthogonalEdgeStyle;rounded=0;orthogonalLoop=1;jettySize=auto;html=1;exitX=0.5;exitY=1;exitDx=0;exitDy=0;" edge="1" parent="bcI5A2F_Ulys4gcZDIDl-1" source="bcI5A2F_Ulys4gcZDIDl-2" target="bcI5A2F_Ulys4gcZDIDl-3">
          <mxGeometry relative="1" as="geometry" />
        </mxCell>
        <mxCell id="bcI5A2F_Ulys4gcZDIDl-134" style="edgeStyle=orthogonalEdgeStyle;rounded=0;orthogonalLoop=1;jettySize=auto;html=1;exitX=0.5;exitY=1;exitDx=0;exitDy=0;" edge="1" parent="bcI5A2F_Ulys4gcZDIDl-1" source="bcI5A2F_Ulys4gcZDIDl-2" target="bcI5A2F_Ulys4gcZDIDl-4">
          <mxGeometry relative="1" as="geometry" />
        </mxCell>
        <mxCell id="bcI5A2F_Ulys4gcZDIDl-136" style="edgeStyle=orthogonalEdgeStyle;rounded=0;orthogonalLoop=1;jettySize=auto;html=1;exitX=0.5;exitY=1;exitDx=0;exitDy=0;" edge="1" parent="bcI5A2F_Ulys4gcZDIDl-1" source="bcI5A2F_Ulys4gcZDIDl-2" target="bcI5A2F_Ulys4gcZDIDl-7">
          <mxGeometry relative="1" as="geometry" />
        </mxCell>
        <mxCell id="bcI5A2F_Ulys4gcZDIDl-137" style="edgeStyle=orthogonalEdgeStyle;rounded=0;orthogonalLoop=1;jettySize=auto;html=1;exitX=0.5;exitY=1;exitDx=0;exitDy=0;entryX=0.5;entryY=0;entryDx=0;entryDy=0;" edge="1" parent="bcI5A2F_Ulys4gcZDIDl-1" source="bcI5A2F_Ulys4gcZDIDl-2" target="bcI5A2F_Ulys4gcZDIDl-5">
          <mxGeometry relative="1" as="geometry">
            <Array as="points">
              <mxPoint x="346" y="-1650" />
              <mxPoint x="637" y="-1650" />
            </Array>
          </mxGeometry>
        </mxCell>
        <mxCell id="bcI5A2F_Ulys4gcZDIDl-2" value="身份验证" style="rounded=1;whiteSpace=wrap;html=1;" vertex="1" parent="bcI5A2F_Ulys4gcZDIDl-1">
          <mxGeometry x="286" y="-1770" width="120" height="60" as="geometry" />
        </mxCell>
        <mxCell id="bcI5A2F_Ulys4gcZDIDl-54" style="edgeStyle=orthogonalEdgeStyle;rounded=0;orthogonalLoop=1;jettySize=auto;html=1;exitX=0.5;exitY=1;exitDx=0;exitDy=0;entryX=0.5;entryY=1;entryDx=0;entryDy=0;" edge="1" parent="bcI5A2F_Ulys4gcZDIDl-1" source="bcI5A2F_Ulys4gcZDIDl-3" target="bcI5A2F_Ulys4gcZDIDl-16">
          <mxGeometry relative="1" as="geometry" />
        </mxCell>
        <mxCell id="bcI5A2F_Ulys4gcZDIDl-55" style="edgeStyle=orthogonalEdgeStyle;rounded=0;orthogonalLoop=1;jettySize=auto;html=1;exitX=0.5;exitY=1;exitDx=0;exitDy=0;" edge="1" parent="bcI5A2F_Ulys4gcZDIDl-1" source="bcI5A2F_Ulys4gcZDIDl-3" target="bcI5A2F_Ulys4gcZDIDl-21">
          <mxGeometry relative="1" as="geometry" />
        </mxCell>
        <mxCell id="bcI5A2F_Ulys4gcZDIDl-3" value="捐赠者" style="rounded=1;whiteSpace=wrap;html=1;" vertex="1" parent="bcI5A2F_Ulys4gcZDIDl-1">
          <mxGeometry x="-400" y="-1585" width="120" height="60" as="geometry" />
        </mxCell>
        <mxCell id="bcI5A2F_Ulys4gcZDIDl-48" style="edgeStyle=orthogonalEdgeStyle;rounded=0;orthogonalLoop=1;jettySize=auto;html=1;exitX=0.5;exitY=1;exitDx=0;exitDy=0;entryX=0.5;entryY=1;entryDx=0;entryDy=0;" edge="1" parent="bcI5A2F_Ulys4gcZDIDl-1" source="bcI5A2F_Ulys4gcZDIDl-4" target="bcI5A2F_Ulys4gcZDIDl-44">
          <mxGeometry relative="1" as="geometry" />
        </mxCell>
        <mxCell id="bcI5A2F_Ulys4gcZDIDl-49" style="edgeStyle=orthogonalEdgeStyle;rounded=0;orthogonalLoop=1;jettySize=auto;html=1;exitX=0.5;exitY=1;exitDx=0;exitDy=0;entryX=0.5;entryY=1;entryDx=0;entryDy=0;" edge="1" parent="bcI5A2F_Ulys4gcZDIDl-1" source="bcI5A2F_Ulys4gcZDIDl-4" target="bcI5A2F_Ulys4gcZDIDl-45">
          <mxGeometry relative="1" as="geometry" />
        </mxCell>
        <mxCell id="bcI5A2F_Ulys4gcZDIDl-50" style="edgeStyle=orthogonalEdgeStyle;rounded=0;orthogonalLoop=1;jettySize=auto;html=1;exitX=0.5;exitY=1;exitDx=0;exitDy=0;" edge="1" parent="bcI5A2F_Ulys4gcZDIDl-1" source="bcI5A2F_Ulys4gcZDIDl-4" target="bcI5A2F_Ulys4gcZDIDl-46">
          <mxGeometry relative="1" as="geometry" />
        </mxCell>
        <mxCell id="bcI5A2F_Ulys4gcZDIDl-51" style="edgeStyle=orthogonalEdgeStyle;rounded=0;orthogonalLoop=1;jettySize=auto;html=1;exitX=0.5;exitY=1;exitDx=0;exitDy=0;" edge="1" parent="bcI5A2F_Ulys4gcZDIDl-1" source="bcI5A2F_Ulys4gcZDIDl-4" target="bcI5A2F_Ulys4gcZDIDl-47">
          <mxGeometry relative="1" as="geometry" />
        </mxCell>
        <mxCell id="bcI5A2F_Ulys4gcZDIDl-53" style="edgeStyle=orthogonalEdgeStyle;rounded=0;orthogonalLoop=1;jettySize=auto;html=1;exitX=0.5;exitY=1;exitDx=0;exitDy=0;" edge="1" parent="bcI5A2F_Ulys4gcZDIDl-1" source="bcI5A2F_Ulys4gcZDIDl-4" target="bcI5A2F_Ulys4gcZDIDl-52">
          <mxGeometry relative="1" as="geometry" />
        </mxCell>
        <mxCell id="bcI5A2F_Ulys4gcZDIDl-4" value="入库员" style="rounded=1;whiteSpace=wrap;html=1;" vertex="1" parent="bcI5A2F_Ulys4gcZDIDl-1">
          <mxGeometry y="-1585" width="120" height="60" as="geometry" />
        </mxCell>
        <mxCell id="bcI5A2F_Ulys4gcZDIDl-40" style="edgeStyle=orthogonalEdgeStyle;rounded=0;orthogonalLoop=1;jettySize=auto;html=1;exitX=0.5;exitY=1;exitDx=0;exitDy=0;entryX=0.5;entryY=1;entryDx=0;entryDy=0;" edge="1" parent="bcI5A2F_Ulys4gcZDIDl-1" source="bcI5A2F_Ulys4gcZDIDl-5" target="bcI5A2F_Ulys4gcZDIDl-34">
          <mxGeometry relative="1" as="geometry" />
        </mxCell>
        <mxCell id="bcI5A2F_Ulys4gcZDIDl-41" style="edgeStyle=orthogonalEdgeStyle;rounded=0;orthogonalLoop=1;jettySize=auto;html=1;exitX=0.5;exitY=1;exitDx=0;exitDy=0;entryX=0.5;entryY=1;entryDx=0;entryDy=0;" edge="1" parent="bcI5A2F_Ulys4gcZDIDl-1" source="bcI5A2F_Ulys4gcZDIDl-5" target="bcI5A2F_Ulys4gcZDIDl-35">
          <mxGeometry relative="1" as="geometry" />
        </mxCell>
        <mxCell id="bcI5A2F_Ulys4gcZDIDl-42" style="edgeStyle=orthogonalEdgeStyle;rounded=0;orthogonalLoop=1;jettySize=auto;html=1;exitX=0.5;exitY=1;exitDx=0;exitDy=0;" edge="1" parent="bcI5A2F_Ulys4gcZDIDl-1" source="bcI5A2F_Ulys4gcZDIDl-5" target="bcI5A2F_Ulys4gcZDIDl-36">
          <mxGeometry relative="1" as="geometry" />
        </mxCell>
        <mxCell id="bcI5A2F_Ulys4gcZDIDl-43" style="edgeStyle=orthogonalEdgeStyle;rounded=0;orthogonalLoop=1;jettySize=auto;html=1;exitX=0.5;exitY=1;exitDx=0;exitDy=0;" edge="1" parent="bcI5A2F_Ulys4gcZDIDl-1" source="bcI5A2F_Ulys4gcZDIDl-5" target="bcI5A2F_Ulys4gcZDIDl-37">
          <mxGeometry relative="1" as="geometry" />
        </mxCell>
        <mxCell id="bcI5A2F_Ulys4gcZDIDl-5" value="出库员" style="rounded=1;whiteSpace=wrap;html=1;" vertex="1" parent="bcI5A2F_Ulys4gcZDIDl-1">
          <mxGeometry x="527" y="-1560" width="120" height="60" as="geometry" />
        </mxCell>
        <mxCell id="bcI5A2F_Ulys4gcZDIDl-28" style="edgeStyle=orthogonalEdgeStyle;rounded=0;orthogonalLoop=1;jettySize=auto;html=1;exitX=0.5;exitY=1;exitDx=0;exitDy=0;entryX=0.5;entryY=1;entryDx=0;entryDy=0;" edge="1" parent="bcI5A2F_Ulys4gcZDIDl-1" source="bcI5A2F_Ulys4gcZDIDl-7" target="bcI5A2F_Ulys4gcZDIDl-22">
          <mxGeometry relative="1" as="geometry">
            <mxPoint x="977" y="-1495" as="targetPoint" />
          </mxGeometry>
        </mxCell>
        <mxCell id="bcI5A2F_Ulys4gcZDIDl-29" style="edgeStyle=orthogonalEdgeStyle;rounded=0;orthogonalLoop=1;jettySize=auto;html=1;exitX=0.5;exitY=1;exitDx=0;exitDy=0;entryX=0.5;entryY=1;entryDx=0;entryDy=0;" edge="1" parent="bcI5A2F_Ulys4gcZDIDl-1" source="bcI5A2F_Ulys4gcZDIDl-7" target="bcI5A2F_Ulys4gcZDIDl-23">
          <mxGeometry relative="1" as="geometry" />
        </mxCell>
        <mxCell id="bcI5A2F_Ulys4gcZDIDl-30" style="edgeStyle=orthogonalEdgeStyle;rounded=0;orthogonalLoop=1;jettySize=auto;html=1;exitX=0.5;exitY=1;exitDx=0;exitDy=0;entryX=0.5;entryY=1;entryDx=0;entryDy=0;" edge="1" parent="bcI5A2F_Ulys4gcZDIDl-1" source="bcI5A2F_Ulys4gcZDIDl-7" target="bcI5A2F_Ulys4gcZDIDl-24">
          <mxGeometry relative="1" as="geometry" />
        </mxCell>
        <mxCell id="bcI5A2F_Ulys4gcZDIDl-31" style="edgeStyle=orthogonalEdgeStyle;rounded=0;orthogonalLoop=1;jettySize=auto;html=1;exitX=0.5;exitY=1;exitDx=0;exitDy=0;entryX=0.5;entryY=1;entryDx=0;entryDy=0;" edge="1" parent="bcI5A2F_Ulys4gcZDIDl-1" source="bcI5A2F_Ulys4gcZDIDl-7" target="bcI5A2F_Ulys4gcZDIDl-25">
          <mxGeometry relative="1" as="geometry" />
        </mxCell>
        <mxCell id="bcI5A2F_Ulys4gcZDIDl-32" style="edgeStyle=orthogonalEdgeStyle;rounded=0;orthogonalLoop=1;jettySize=auto;html=1;exitX=0.5;exitY=1;exitDx=0;exitDy=0;" edge="1" parent="bcI5A2F_Ulys4gcZDIDl-1" source="bcI5A2F_Ulys4gcZDIDl-7" target="bcI5A2F_Ulys4gcZDIDl-26">
          <mxGeometry relative="1" as="geometry" />
        </mxCell>
        <mxCell id="bcI5A2F_Ulys4gcZDIDl-33" style="edgeStyle=orthogonalEdgeStyle;rounded=0;orthogonalLoop=1;jettySize=auto;html=1;exitX=0.5;exitY=1;exitDx=0;exitDy=0;entryX=0.5;entryY=1;entryDx=0;entryDy=0;" edge="1" parent="bcI5A2F_Ulys4gcZDIDl-1" source="bcI5A2F_Ulys4gcZDIDl-7" target="bcI5A2F_Ulys4gcZDIDl-27">
          <mxGeometry relative="1" as="geometry" />
        </mxCell>
        <mxCell id="bcI5A2F_Ulys4gcZDIDl-7" value="管理员" style="rounded=1;whiteSpace=wrap;html=1;" vertex="1" parent="bcI5A2F_Ulys4gcZDIDl-1">
          <mxGeometry x="907" y="-1585" width="120" height="60" as="geometry" />
        </mxCell>
        <mxCell id="bcI5A2F_Ulys4gcZDIDl-16" value="已&lt;br&gt;入&lt;br&gt;库&lt;br&gt;样&lt;br&gt;品&lt;br&gt;信&lt;br&gt;息" style="rounded=1;whiteSpace=wrap;html=1;align=center;verticalAlign=middle;direction=west;" vertex="1" parent="bcI5A2F_Ulys4gcZDIDl-1">
          <mxGeometry x="-400" y="-1485" width="40" height="110" as="geometry" />
        </mxCell>
        <mxCell id="bcI5A2F_Ulys4gcZDIDl-21" value="已&lt;br&gt;出&lt;br&gt;库&lt;br&gt;样&lt;br&gt;品&lt;br&gt;信&lt;br&gt;息" style="rounded=1;whiteSpace=wrap;html=1;align=center;verticalAlign=middle;direction=west;" vertex="1" parent="bcI5A2F_Ulys4gcZDIDl-1">
          <mxGeometry x="-330" y="-1485" width="40" height="110" as="geometry" />
        </mxCell>
        <mxCell id="bcI5A2F_Ulys4gcZDIDl-86" style="edgeStyle=orthogonalEdgeStyle;rounded=0;orthogonalLoop=1;jettySize=auto;html=1;exitX=0.5;exitY=0;exitDx=0;exitDy=0;entryX=0.5;entryY=1;entryDx=0;entryDy=0;" edge="1" parent="bcI5A2F_Ulys4gcZDIDl-1" source="bcI5A2F_Ulys4gcZDIDl-22" target="bcI5A2F_Ulys4gcZDIDl-85">
          <mxGeometry relative="1" as="geometry" />
        </mxCell>
        <mxCell id="bcI5A2F_Ulys4gcZDIDl-22" value="设&lt;br&gt;备&lt;br&gt;管&lt;br&gt;理" style="rounded=1;whiteSpace=wrap;html=1;align=center;verticalAlign=middle;direction=west;" vertex="1" parent="bcI5A2F_Ulys4gcZDIDl-1">
          <mxGeometry x="837" y="-1475" width="40" height="110" as="geometry" />
        </mxCell>
        <mxCell id="bcI5A2F_Ulys4gcZDIDl-84" style="edgeStyle=orthogonalEdgeStyle;rounded=0;orthogonalLoop=1;jettySize=auto;html=1;exitX=0.5;exitY=0;exitDx=0;exitDy=0;entryX=0.5;entryY=1;entryDx=0;entryDy=0;" edge="1" parent="bcI5A2F_Ulys4gcZDIDl-1" source="bcI5A2F_Ulys4gcZDIDl-23" target="bcI5A2F_Ulys4gcZDIDl-83">
          <mxGeometry relative="1" as="geometry" />
        </mxCell>
        <mxCell id="bcI5A2F_Ulys4gcZDIDl-23" value="项&lt;br&gt;目&lt;br&gt;管&lt;br&gt;理" style="rounded=1;whiteSpace=wrap;html=1;align=center;verticalAlign=middle;direction=west;" vertex="1" parent="bcI5A2F_Ulys4gcZDIDl-1">
          <mxGeometry x="887" y="-1475" width="40" height="110" as="geometry" />
        </mxCell>
        <mxCell id="bcI5A2F_Ulys4gcZDIDl-24" value="审&lt;br&gt;核&lt;br&gt;出&lt;br&gt;库" style="rounded=1;whiteSpace=wrap;html=1;align=center;verticalAlign=middle;direction=west;" vertex="1" parent="bcI5A2F_Ulys4gcZDIDl-1">
          <mxGeometry x="937" y="-1475" width="40" height="110" as="geometry" />
        </mxCell>
        <mxCell id="bcI5A2F_Ulys4gcZDIDl-89" style="edgeStyle=orthogonalEdgeStyle;rounded=0;orthogonalLoop=1;jettySize=auto;html=1;exitX=0.5;exitY=0;exitDx=0;exitDy=0;entryX=0.5;entryY=1;entryDx=0;entryDy=0;" edge="1" parent="bcI5A2F_Ulys4gcZDIDl-1" source="bcI5A2F_Ulys4gcZDIDl-25" target="bcI5A2F_Ulys4gcZDIDl-88">
          <mxGeometry relative="1" as="geometry" />
        </mxCell>
        <mxCell id="bcI5A2F_Ulys4gcZDIDl-25" value="账&lt;br&gt;号&lt;br&gt;管&lt;br&gt;理" style="rounded=1;whiteSpace=wrap;html=1;align=center;verticalAlign=middle;direction=west;" vertex="1" parent="bcI5A2F_Ulys4gcZDIDl-1">
          <mxGeometry x="991" y="-1475" width="40" height="110" as="geometry" />
        </mxCell>
        <mxCell id="bcI5A2F_Ulys4gcZDIDl-26" value="医&lt;br&gt;院&lt;br&gt;管&lt;br&gt;理" style="rounded=1;whiteSpace=wrap;html=1;align=center;verticalAlign=middle;direction=west;" vertex="1" parent="bcI5A2F_Ulys4gcZDIDl-1">
          <mxGeometry x="1047" y="-1475" width="40" height="110" as="geometry" />
        </mxCell>
        <mxCell id="bcI5A2F_Ulys4gcZDIDl-27" value="部&lt;br&gt;门&lt;br&gt;管&lt;br&gt;理" style="rounded=1;whiteSpace=wrap;html=1;align=center;verticalAlign=middle;direction=west;" vertex="1" parent="bcI5A2F_Ulys4gcZDIDl-1">
          <mxGeometry x="1097" y="-1475" width="40" height="110" as="geometry" />
        </mxCell>
        <mxCell id="bcI5A2F_Ulys4gcZDIDl-60" style="edgeStyle=orthogonalEdgeStyle;rounded=0;orthogonalLoop=1;jettySize=auto;html=1;exitX=0.5;exitY=0;exitDx=0;exitDy=0;entryX=0.5;entryY=1;entryDx=0;entryDy=0;" edge="1" parent="bcI5A2F_Ulys4gcZDIDl-1" source="bcI5A2F_Ulys4gcZDIDl-34" target="bcI5A2F_Ulys4gcZDIDl-58">
          <mxGeometry relative="1" as="geometry">
            <Array as="points">
              <mxPoint x="510" y="-1200" />
              <mxPoint x="280" y="-1200" />
              <mxPoint x="280" y="-1130" />
            </Array>
          </mxGeometry>
        </mxCell>
        <mxCell id="bcI5A2F_Ulys4gcZDIDl-34" value="生&lt;br&gt;成&lt;br&gt;出&lt;br&gt;库&lt;br&gt;单" style="rounded=1;whiteSpace=wrap;html=1;align=center;verticalAlign=middle;direction=west;" vertex="1" parent="bcI5A2F_Ulys4gcZDIDl-1">
          <mxGeometry x="490" y="-1450" width="40" height="110" as="geometry" />
        </mxCell>
        <mxCell id="bcI5A2F_Ulys4gcZDIDl-68" style="edgeStyle=orthogonalEdgeStyle;rounded=0;orthogonalLoop=1;jettySize=auto;html=1;exitX=0.5;exitY=0;exitDx=0;exitDy=0;entryX=0.5;entryY=1;entryDx=0;entryDy=0;" edge="1" parent="bcI5A2F_Ulys4gcZDIDl-1" source="bcI5A2F_Ulys4gcZDIDl-35" target="bcI5A2F_Ulys4gcZDIDl-64">
          <mxGeometry relative="1" as="geometry" />
        </mxCell>
        <mxCell id="bcI5A2F_Ulys4gcZDIDl-69" style="edgeStyle=orthogonalEdgeStyle;rounded=0;orthogonalLoop=1;jettySize=auto;html=1;exitX=0.5;exitY=0;exitDx=0;exitDy=0;entryX=0.5;entryY=1;entryDx=0;entryDy=0;" edge="1" parent="bcI5A2F_Ulys4gcZDIDl-1" source="bcI5A2F_Ulys4gcZDIDl-35" target="bcI5A2F_Ulys4gcZDIDl-65">
          <mxGeometry relative="1" as="geometry" />
        </mxCell>
        <mxCell id="bcI5A2F_Ulys4gcZDIDl-70" style="edgeStyle=orthogonalEdgeStyle;rounded=0;orthogonalLoop=1;jettySize=auto;html=1;exitX=0.5;exitY=0;exitDx=0;exitDy=0;entryX=0.5;entryY=1;entryDx=0;entryDy=0;" edge="1" parent="bcI5A2F_Ulys4gcZDIDl-1" source="bcI5A2F_Ulys4gcZDIDl-35" target="bcI5A2F_Ulys4gcZDIDl-66">
          <mxGeometry relative="1" as="geometry" />
        </mxCell>
        <mxCell id="bcI5A2F_Ulys4gcZDIDl-71" style="edgeStyle=orthogonalEdgeStyle;rounded=0;orthogonalLoop=1;jettySize=auto;html=1;exitX=0.5;exitY=0;exitDx=0;exitDy=0;entryX=0.5;entryY=1;entryDx=0;entryDy=0;" edge="1" parent="bcI5A2F_Ulys4gcZDIDl-1" source="bcI5A2F_Ulys4gcZDIDl-35" target="bcI5A2F_Ulys4gcZDIDl-67">
          <mxGeometry relative="1" as="geometry" />
        </mxCell>
        <mxCell id="bcI5A2F_Ulys4gcZDIDl-35" value="待&lt;br&gt;确&lt;br&gt;认&lt;br&gt;出&lt;br&gt;库&lt;br&gt;单" style="rounded=1;whiteSpace=wrap;html=1;align=center;verticalAlign=middle;direction=west;" vertex="1" parent="bcI5A2F_Ulys4gcZDIDl-1">
          <mxGeometry x="540" y="-1450" width="40" height="110" as="geometry" />
        </mxCell>
        <mxCell id="bcI5A2F_Ulys4gcZDIDl-72" style="edgeStyle=orthogonalEdgeStyle;rounded=0;orthogonalLoop=1;jettySize=auto;html=1;exitX=0.5;exitY=0;exitDx=0;exitDy=0;entryX=0.5;entryY=1;entryDx=0;entryDy=0;" edge="1" parent="bcI5A2F_Ulys4gcZDIDl-1" source="bcI5A2F_Ulys4gcZDIDl-36" target="bcI5A2F_Ulys4gcZDIDl-73">
          <mxGeometry relative="1" as="geometry">
            <mxPoint x="720" y="-950" as="targetPoint" />
          </mxGeometry>
        </mxCell>
        <mxCell id="bcI5A2F_Ulys4gcZDIDl-74" style="edgeStyle=orthogonalEdgeStyle;rounded=0;orthogonalLoop=1;jettySize=auto;html=1;exitX=0.5;exitY=0;exitDx=0;exitDy=0;entryX=0.5;entryY=1;entryDx=0;entryDy=0;" edge="1" parent="bcI5A2F_Ulys4gcZDIDl-1" source="bcI5A2F_Ulys4gcZDIDl-36" target="bcI5A2F_Ulys4gcZDIDl-75">
          <mxGeometry relative="1" as="geometry">
            <mxPoint x="760" y="-1000" as="targetPoint" />
          </mxGeometry>
        </mxCell>
        <mxCell id="bcI5A2F_Ulys4gcZDIDl-77" style="edgeStyle=orthogonalEdgeStyle;rounded=0;orthogonalLoop=1;jettySize=auto;html=1;exitX=0.5;exitY=0;exitDx=0;exitDy=0;entryX=0.5;entryY=1;entryDx=0;entryDy=0;" edge="1" parent="bcI5A2F_Ulys4gcZDIDl-1" source="bcI5A2F_Ulys4gcZDIDl-36" target="bcI5A2F_Ulys4gcZDIDl-76">
          <mxGeometry relative="1" as="geometry" />
        </mxCell>
        <mxCell id="bcI5A2F_Ulys4gcZDIDl-79" style="edgeStyle=orthogonalEdgeStyle;rounded=0;orthogonalLoop=1;jettySize=auto;html=1;exitX=0.5;exitY=0;exitDx=0;exitDy=0;entryX=0.5;entryY=1;entryDx=0;entryDy=0;" edge="1" parent="bcI5A2F_Ulys4gcZDIDl-1" source="bcI5A2F_Ulys4gcZDIDl-36" target="bcI5A2F_Ulys4gcZDIDl-78">
          <mxGeometry relative="1" as="geometry" />
        </mxCell>
        <mxCell id="bcI5A2F_Ulys4gcZDIDl-36" value="出&lt;br&gt;库&lt;br&gt;操&lt;br&gt;作" style="rounded=1;whiteSpace=wrap;html=1;align=center;verticalAlign=middle;direction=west;" vertex="1" parent="bcI5A2F_Ulys4gcZDIDl-1">
          <mxGeometry x="590" y="-1450" width="40" height="110" as="geometry" />
        </mxCell>
        <mxCell id="bcI5A2F_Ulys4gcZDIDl-82" style="edgeStyle=orthogonalEdgeStyle;rounded=0;orthogonalLoop=1;jettySize=auto;html=1;exitX=0.5;exitY=0;exitDx=0;exitDy=0;entryX=0.5;entryY=1;entryDx=0;entryDy=0;" edge="1" parent="bcI5A2F_Ulys4gcZDIDl-1" source="bcI5A2F_Ulys4gcZDIDl-37" target="bcI5A2F_Ulys4gcZDIDl-81">
          <mxGeometry relative="1" as="geometry" />
        </mxCell>
        <mxCell id="bcI5A2F_Ulys4gcZDIDl-37" value="出&lt;br&gt;库&lt;br&gt;记&lt;br&gt;录" style="rounded=1;whiteSpace=wrap;html=1;align=center;verticalAlign=middle;direction=west;" vertex="1" parent="bcI5A2F_Ulys4gcZDIDl-1">
          <mxGeometry x="644" y="-1450" width="40" height="110" as="geometry" />
        </mxCell>
        <mxCell id="bcI5A2F_Ulys4gcZDIDl-91" style="edgeStyle=orthogonalEdgeStyle;rounded=0;orthogonalLoop=1;jettySize=auto;html=1;exitX=0.5;exitY=0;exitDx=0;exitDy=0;entryX=0.5;entryY=1;entryDx=0;entryDy=0;" edge="1" parent="bcI5A2F_Ulys4gcZDIDl-1" source="bcI5A2F_Ulys4gcZDIDl-44" target="bcI5A2F_Ulys4gcZDIDl-93">
          <mxGeometry relative="1" as="geometry">
            <mxPoint x="-180" y="-1305" as="targetPoint" />
          </mxGeometry>
        </mxCell>
        <mxCell id="bcI5A2F_Ulys4gcZDIDl-109" style="edgeStyle=orthogonalEdgeStyle;rounded=0;orthogonalLoop=1;jettySize=auto;html=1;exitX=0.5;exitY=0;exitDx=0;exitDy=0;entryX=0.5;entryY=1;entryDx=0;entryDy=0;" edge="1" parent="bcI5A2F_Ulys4gcZDIDl-1" source="bcI5A2F_Ulys4gcZDIDl-44" target="bcI5A2F_Ulys4gcZDIDl-97">
          <mxGeometry relative="1" as="geometry" />
        </mxCell>
        <mxCell id="bcI5A2F_Ulys4gcZDIDl-110" style="edgeStyle=orthogonalEdgeStyle;rounded=0;orthogonalLoop=1;jettySize=auto;html=1;exitX=0.5;exitY=0;exitDx=0;exitDy=0;entryX=0.5;entryY=1;entryDx=0;entryDy=0;" edge="1" parent="bcI5A2F_Ulys4gcZDIDl-1" source="bcI5A2F_Ulys4gcZDIDl-44" target="bcI5A2F_Ulys4gcZDIDl-98">
          <mxGeometry relative="1" as="geometry" />
        </mxCell>
        <mxCell id="bcI5A2F_Ulys4gcZDIDl-111" style="edgeStyle=orthogonalEdgeStyle;rounded=0;orthogonalLoop=1;jettySize=auto;html=1;exitX=0.5;exitY=0;exitDx=0;exitDy=0;entryX=0.5;entryY=1;entryDx=0;entryDy=0;" edge="1" parent="bcI5A2F_Ulys4gcZDIDl-1" source="bcI5A2F_Ulys4gcZDIDl-44" target="bcI5A2F_Ulys4gcZDIDl-99">
          <mxGeometry relative="1" as="geometry" />
        </mxCell>
        <mxCell id="bcI5A2F_Ulys4gcZDIDl-112" style="edgeStyle=orthogonalEdgeStyle;rounded=0;orthogonalLoop=1;jettySize=auto;html=1;exitX=0.5;exitY=0;exitDx=0;exitDy=0;entryX=0.5;entryY=1;entryDx=0;entryDy=0;" edge="1" parent="bcI5A2F_Ulys4gcZDIDl-1" source="bcI5A2F_Ulys4gcZDIDl-44" target="bcI5A2F_Ulys4gcZDIDl-100">
          <mxGeometry relative="1" as="geometry" />
        </mxCell>
        <mxCell id="bcI5A2F_Ulys4gcZDIDl-113" style="edgeStyle=orthogonalEdgeStyle;rounded=0;orthogonalLoop=1;jettySize=auto;html=1;exitX=0.5;exitY=0;exitDx=0;exitDy=0;entryX=0.5;entryY=1;entryDx=0;entryDy=0;" edge="1" parent="bcI5A2F_Ulys4gcZDIDl-1" source="bcI5A2F_Ulys4gcZDIDl-44" target="bcI5A2F_Ulys4gcZDIDl-94">
          <mxGeometry relative="1" as="geometry" />
        </mxCell>
        <mxCell id="bcI5A2F_Ulys4gcZDIDl-114" style="edgeStyle=orthogonalEdgeStyle;rounded=0;orthogonalLoop=1;jettySize=auto;html=1;exitX=0.5;exitY=0;exitDx=0;exitDy=0;entryX=0.5;entryY=1;entryDx=0;entryDy=0;" edge="1" parent="bcI5A2F_Ulys4gcZDIDl-1" source="bcI5A2F_Ulys4gcZDIDl-44" target="bcI5A2F_Ulys4gcZDIDl-96">
          <mxGeometry relative="1" as="geometry" />
        </mxCell>
        <mxCell id="bcI5A2F_Ulys4gcZDIDl-115" style="edgeStyle=orthogonalEdgeStyle;rounded=0;orthogonalLoop=1;jettySize=auto;html=1;exitX=0.5;exitY=0;exitDx=0;exitDy=0;entryX=0.5;entryY=1;entryDx=0;entryDy=0;" edge="1" parent="bcI5A2F_Ulys4gcZDIDl-1" source="bcI5A2F_Ulys4gcZDIDl-44" target="bcI5A2F_Ulys4gcZDIDl-95">
          <mxGeometry relative="1" as="geometry" />
        </mxCell>
        <mxCell id="bcI5A2F_Ulys4gcZDIDl-44" value="快&lt;br&gt;速&lt;br&gt;入&lt;br&gt;库" style="rounded=1;whiteSpace=wrap;html=1;align=center;verticalAlign=middle;direction=west;" vertex="1" parent="bcI5A2F_Ulys4gcZDIDl-1">
          <mxGeometry x="-60" y="-1475" width="40" height="110" as="geometry" />
        </mxCell>
        <mxCell id="bcI5A2F_Ulys4gcZDIDl-45" value="待&lt;br&gt;入&lt;br&gt;库&lt;br&gt;样&lt;br&gt;品" style="rounded=1;whiteSpace=wrap;html=1;align=center;verticalAlign=middle;direction=west;" vertex="1" parent="bcI5A2F_Ulys4gcZDIDl-1">
          <mxGeometry x="-10" y="-1475" width="40" height="110" as="geometry" />
        </mxCell>
        <mxCell id="bcI5A2F_Ulys4gcZDIDl-46" value="入&lt;br&gt;库&lt;br&gt;记&lt;br&gt;录" style="rounded=1;whiteSpace=wrap;html=1;align=center;verticalAlign=middle;direction=west;" vertex="1" parent="bcI5A2F_Ulys4gcZDIDl-1">
          <mxGeometry x="40" y="-1475" width="40" height="110" as="geometry" />
        </mxCell>
        <mxCell id="bcI5A2F_Ulys4gcZDIDl-118" style="edgeStyle=orthogonalEdgeStyle;rounded=0;orthogonalLoop=1;jettySize=auto;html=1;exitX=0.5;exitY=0;exitDx=0;exitDy=0;entryX=0.5;entryY=1;entryDx=0;entryDy=0;" edge="1" parent="bcI5A2F_Ulys4gcZDIDl-1" source="bcI5A2F_Ulys4gcZDIDl-47" target="bcI5A2F_Ulys4gcZDIDl-104">
          <mxGeometry relative="1" as="geometry" />
        </mxCell>
        <mxCell id="bcI5A2F_Ulys4gcZDIDl-119" style="edgeStyle=orthogonalEdgeStyle;rounded=0;orthogonalLoop=1;jettySize=auto;html=1;exitX=0.5;exitY=0;exitDx=0;exitDy=0;entryX=0.5;entryY=1;entryDx=0;entryDy=0;" edge="1" parent="bcI5A2F_Ulys4gcZDIDl-1" source="bcI5A2F_Ulys4gcZDIDl-47" target="bcI5A2F_Ulys4gcZDIDl-103">
          <mxGeometry relative="1" as="geometry" />
        </mxCell>
        <mxCell id="bcI5A2F_Ulys4gcZDIDl-47" value="入&lt;br&gt;库&lt;br&gt;单" style="rounded=1;whiteSpace=wrap;html=1;align=center;verticalAlign=middle;direction=west;" vertex="1" parent="bcI5A2F_Ulys4gcZDIDl-1">
          <mxGeometry x="94" y="-1475" width="40" height="110" as="geometry" />
        </mxCell>
        <mxCell id="bcI5A2F_Ulys4gcZDIDl-129" style="edgeStyle=orthogonalEdgeStyle;rounded=0;orthogonalLoop=1;jettySize=auto;html=1;exitX=0.5;exitY=0;exitDx=0;exitDy=0;" edge="1" parent="bcI5A2F_Ulys4gcZDIDl-1" source="bcI5A2F_Ulys4gcZDIDl-52" target="bcI5A2F_Ulys4gcZDIDl-128">
          <mxGeometry relative="1" as="geometry" />
        </mxCell>
        <mxCell id="bcI5A2F_Ulys4gcZDIDl-52" value="捐&lt;br&gt;赠&lt;br&gt;者&lt;br&gt;管&lt;br&gt;理" style="rounded=1;whiteSpace=wrap;html=1;align=center;verticalAlign=middle;direction=west;" vertex="1" parent="bcI5A2F_Ulys4gcZDIDl-1">
          <mxGeometry x="144" y="-1475" width="40" height="110" as="geometry" />
        </mxCell>
        <mxCell id="bcI5A2F_Ulys4gcZDIDl-56" value="临&lt;br&gt;床&lt;br&gt;信&lt;br&gt;息&lt;br&gt;导&lt;br&gt;入" style="rounded=1;whiteSpace=wrap;html=1;align=center;verticalAlign=middle;direction=west;" vertex="1" parent="bcI5A2F_Ulys4gcZDIDl-1">
          <mxGeometry x="200" y="-979" width="40" height="110" as="geometry" />
        </mxCell>
        <mxCell id="bcI5A2F_Ulys4gcZDIDl-57" value="查&lt;br&gt;询&lt;br&gt;所&lt;br&gt;有&lt;br&gt;筛&lt;br&gt;选&lt;br&gt;条&lt;br&gt;件" style="rounded=1;whiteSpace=wrap;html=1;align=center;verticalAlign=middle;direction=west;" vertex="1" parent="bcI5A2F_Ulys4gcZDIDl-1">
          <mxGeometry x="256" y="-979" width="40" height="129" as="geometry" />
        </mxCell>
        <mxCell id="bcI5A2F_Ulys4gcZDIDl-61" style="edgeStyle=orthogonalEdgeStyle;rounded=0;orthogonalLoop=1;jettySize=auto;html=1;exitX=0.5;exitY=0;exitDx=0;exitDy=0;entryX=0.5;entryY=1;entryDx=0;entryDy=0;" edge="1" parent="bcI5A2F_Ulys4gcZDIDl-1" source="bcI5A2F_Ulys4gcZDIDl-58" target="bcI5A2F_Ulys4gcZDIDl-56">
          <mxGeometry relative="1" as="geometry" />
        </mxCell>
        <mxCell id="bcI5A2F_Ulys4gcZDIDl-62" style="edgeStyle=orthogonalEdgeStyle;rounded=0;orthogonalLoop=1;jettySize=auto;html=1;exitX=0.5;exitY=0;exitDx=0;exitDy=0;" edge="1" parent="bcI5A2F_Ulys4gcZDIDl-1" source="bcI5A2F_Ulys4gcZDIDl-58">
          <mxGeometry relative="1" as="geometry">
            <mxPoint x="276" y="-980" as="targetPoint" />
          </mxGeometry>
        </mxCell>
        <mxCell id="bcI5A2F_Ulys4gcZDIDl-63" style="edgeStyle=orthogonalEdgeStyle;rounded=0;orthogonalLoop=1;jettySize=auto;html=1;exitX=0.5;exitY=0;exitDx=0;exitDy=0;entryX=0.5;entryY=1;entryDx=0;entryDy=0;" edge="1" parent="bcI5A2F_Ulys4gcZDIDl-1" source="bcI5A2F_Ulys4gcZDIDl-58" target="bcI5A2F_Ulys4gcZDIDl-59">
          <mxGeometry relative="1" as="geometry" />
        </mxCell>
        <mxCell id="bcI5A2F_Ulys4gcZDIDl-58" value="选&lt;br&gt;择&lt;br&gt;项&lt;br&gt;目" style="rounded=1;whiteSpace=wrap;html=1;align=center;verticalAlign=middle;direction=west;" vertex="1" parent="bcI5A2F_Ulys4gcZDIDl-1">
          <mxGeometry x="256" y="-1130" width="40" height="110" as="geometry" />
        </mxCell>
        <mxCell id="bcI5A2F_Ulys4gcZDIDl-59" value="导&lt;br&gt;出&lt;br&gt;出&lt;br&gt;库&lt;br&gt;表&lt;br&gt;格" style="rounded=1;whiteSpace=wrap;html=1;align=center;verticalAlign=middle;direction=west;" vertex="1" parent="bcI5A2F_Ulys4gcZDIDl-1">
          <mxGeometry x="316" y="-979" width="40" height="110" as="geometry" />
        </mxCell>
        <mxCell id="bcI5A2F_Ulys4gcZDIDl-64" value="&lt;div class=&quot;lake-content&quot;&gt;&lt;span class=&quot;ne-text&quot;&gt;查&lt;/span&gt;&lt;/div&gt;&lt;div class=&quot;lake-content&quot;&gt;&lt;span class=&quot;ne-text&quot;&gt;询&lt;/span&gt;&lt;/div&gt;&lt;div class=&quot;lake-content&quot;&gt;&lt;span&gt;未&lt;/span&gt;&lt;/div&gt;&lt;div class=&quot;lake-content&quot;&gt;&lt;span class=&quot;ne-text&quot;&gt;确&lt;/span&gt;&lt;/div&gt;&lt;div class=&quot;lake-content&quot;&gt;&lt;span class=&quot;ne-text&quot;&gt;认&lt;/span&gt;&lt;/div&gt;&lt;div class=&quot;lake-content&quot;&gt;&lt;span class=&quot;ne-text&quot;&gt;的&lt;/span&gt;&lt;/div&gt;&lt;div class=&quot;lake-content&quot;&gt;&lt;span class=&quot;ne-text&quot;&gt;出&lt;/span&gt;&lt;/div&gt;&lt;div class=&quot;lake-content&quot;&gt;&lt;span class=&quot;ne-text&quot;&gt;库&lt;/span&gt;&lt;/div&gt;&lt;div class=&quot;lake-content&quot;&gt;&lt;span class=&quot;ne-text&quot;&gt;单&lt;/span&gt;&lt;/div&gt;" style="rounded=1;whiteSpace=wrap;html=1;align=center;verticalAlign=middle;direction=west;" vertex="1" parent="bcI5A2F_Ulys4gcZDIDl-1">
          <mxGeometry x="396" y="-1029" width="40" height="160" as="geometry" />
        </mxCell>
        <mxCell id="bcI5A2F_Ulys4gcZDIDl-65" value="&lt;div class=&quot;lake-content&quot;&gt;&lt;span class=&quot;ne-text&quot;&gt;审&lt;/span&gt;&lt;/div&gt;&lt;div class=&quot;lake-content&quot;&gt;&lt;span class=&quot;ne-text&quot;&gt;核&lt;/span&gt;&lt;/div&gt;&lt;div class=&quot;lake-content&quot;&gt;&lt;span class=&quot;ne-text&quot;&gt;出&lt;/span&gt;&lt;/div&gt;&lt;div class=&quot;lake-content&quot;&gt;&lt;span class=&quot;ne-text&quot;&gt;库&lt;/span&gt;&lt;/div&gt;&lt;div class=&quot;lake-content&quot;&gt;&lt;span class=&quot;ne-text&quot;&gt;单&lt;/span&gt;&lt;/div&gt;" style="rounded=1;whiteSpace=wrap;html=1;align=center;verticalAlign=middle;direction=west;" vertex="1" parent="bcI5A2F_Ulys4gcZDIDl-1">
          <mxGeometry x="456" y="-1029" width="40" height="110" as="geometry" />
        </mxCell>
        <mxCell id="bcI5A2F_Ulys4gcZDIDl-66" value="&lt;div class=&quot;lake-content&quot;&gt;&lt;span class=&quot;ne-text&quot;&gt;查&lt;/span&gt;&lt;/div&gt;&lt;div class=&quot;lake-content&quot;&gt;&lt;span class=&quot;ne-text&quot;&gt;询&lt;/span&gt;&lt;/div&gt;&lt;div class=&quot;lake-content&quot;&gt;&lt;span&gt;未&lt;/span&gt;&lt;/div&gt;&lt;div class=&quot;lake-content&quot;&gt;&lt;span class=&quot;ne-text&quot;&gt;审&lt;/span&gt;&lt;/div&gt;&lt;div class=&quot;lake-content&quot;&gt;&lt;span class=&quot;ne-text&quot;&gt;核&lt;/span&gt;&lt;/div&gt;&lt;div class=&quot;lake-content&quot;&gt;&lt;span class=&quot;ne-text&quot;&gt;的&lt;/span&gt;&lt;/div&gt;&lt;div class=&quot;lake-content&quot;&gt;&lt;span class=&quot;ne-text&quot;&gt;出&lt;/span&gt;&lt;/div&gt;&lt;div class=&quot;lake-content&quot;&gt;&lt;span class=&quot;ne-text&quot;&gt;库&lt;/span&gt;&lt;/div&gt;&lt;div class=&quot;lake-content&quot;&gt;&lt;span class=&quot;ne-text&quot;&gt;单&lt;/span&gt;&lt;/div&gt;" style="rounded=1;whiteSpace=wrap;html=1;align=center;verticalAlign=middle;direction=west;" vertex="1" parent="bcI5A2F_Ulys4gcZDIDl-1">
          <mxGeometry x="516" y="-1029" width="40" height="160" as="geometry" />
        </mxCell>
        <mxCell id="bcI5A2F_Ulys4gcZDIDl-67" value="&lt;div class=&quot;lake-content&quot;&gt;&lt;div class=&quot;lake-content&quot;&gt;&lt;div class=&quot;lake-content&quot;&gt;&lt;span class=&quot;ne-text&quot;&gt;审&lt;/span&gt;&lt;/div&gt;&lt;div class=&quot;lake-content&quot;&gt;&lt;span class=&quot;ne-text&quot;&gt;核&lt;/span&gt;&lt;/div&gt;&lt;div class=&quot;lake-content&quot;&gt;&lt;span class=&quot;ne-text&quot;&gt;出&lt;/span&gt;&lt;/div&gt;&lt;div class=&quot;lake-content&quot;&gt;&lt;span class=&quot;ne-text&quot;&gt;库&lt;/span&gt;&lt;/div&gt;&lt;/div&gt;&lt;/div&gt;" style="rounded=1;whiteSpace=wrap;html=1;align=center;verticalAlign=middle;direction=west;" vertex="1" parent="bcI5A2F_Ulys4gcZDIDl-1">
          <mxGeometry x="576" y="-1029" width="40" height="110" as="geometry" />
        </mxCell>
        <mxCell id="bcI5A2F_Ulys4gcZDIDl-73" value="&lt;div class=&quot;lake-content&quot;&gt;查&lt;/div&gt;&lt;div class=&quot;lake-content&quot;&gt;询&lt;/div&gt;&lt;div class=&quot;lake-content&quot;&gt;所&lt;/div&gt;&lt;div class=&quot;lake-content&quot;&gt;有&lt;/div&gt;&lt;div class=&quot;lake-content&quot;&gt;审&lt;/div&gt;&lt;div class=&quot;lake-content&quot;&gt;核&lt;/div&gt;&lt;div class=&quot;lake-content&quot;&gt;失&lt;/div&gt;&lt;div class=&quot;lake-content&quot;&gt;败&lt;/div&gt;&lt;div class=&quot;lake-content&quot;&gt;出&lt;/div&gt;&lt;div class=&quot;lake-content&quot;&gt;库&lt;/div&gt;&lt;div class=&quot;lake-content&quot;&gt;单&lt;/div&gt;" style="rounded=1;whiteSpace=wrap;html=1;align=center;verticalAlign=middle;direction=west;" vertex="1" parent="bcI5A2F_Ulys4gcZDIDl-1">
          <mxGeometry x="649" y="-1060" width="40" height="160" as="geometry" />
        </mxCell>
        <mxCell id="bcI5A2F_Ulys4gcZDIDl-75" value="&lt;div class=&quot;lake-content&quot;&gt;删&lt;/div&gt;&lt;div class=&quot;lake-content&quot;&gt;除&lt;/div&gt;&lt;div class=&quot;lake-content&quot;&gt;出&lt;/div&gt;&lt;div class=&quot;lake-content&quot;&gt;库&lt;/div&gt;&lt;div class=&quot;lake-content&quot;&gt;单&lt;/div&gt;" style="rounded=1;whiteSpace=wrap;html=1;align=center;verticalAlign=middle;direction=west;" vertex="1" parent="bcI5A2F_Ulys4gcZDIDl-1">
          <mxGeometry x="717" y="-1060" width="40" height="160" as="geometry" />
        </mxCell>
        <mxCell id="bcI5A2F_Ulys4gcZDIDl-76" value="&lt;div class=&quot;lake-content&quot;&gt;查&lt;/div&gt;&lt;div class=&quot;lake-content&quot;&gt;询&lt;/div&gt;&lt;div class=&quot;lake-content&quot;&gt;所&lt;/div&gt;&lt;div class=&quot;lake-content&quot;&gt;有&lt;/div&gt;&lt;div class=&quot;lake-content&quot;&gt;已&lt;/div&gt;&lt;div class=&quot;lake-content&quot;&gt;出&lt;/div&gt;&lt;div class=&quot;lake-content&quot;&gt;库&lt;/div&gt;&lt;div class=&quot;lake-content&quot;&gt;的&lt;/div&gt;&lt;div class=&quot;lake-content&quot;&gt;出&lt;/div&gt;&lt;div class=&quot;lake-content&quot;&gt;库&lt;/div&gt;&lt;div class=&quot;lake-content&quot;&gt;单&lt;/div&gt;&lt;div class=&quot;lake-content&quot;&gt;&lt;br&gt;&lt;/div&gt;" style="rounded=1;whiteSpace=wrap;html=1;align=center;verticalAlign=middle;direction=west;" vertex="1" parent="bcI5A2F_Ulys4gcZDIDl-1">
          <mxGeometry x="797" y="-1060" width="40" height="170" as="geometry" />
        </mxCell>
        <mxCell id="bcI5A2F_Ulys4gcZDIDl-78" value="&lt;div class=&quot;lake-content&quot;&gt;删&lt;/div&gt;&lt;div class=&quot;lake-content&quot;&gt;除&lt;/div&gt;&lt;div class=&quot;lake-content&quot;&gt;单&lt;/div&gt;&lt;div class=&quot;lake-content&quot;&gt;一&lt;/div&gt;&lt;div class=&quot;lake-content&quot;&gt;样&lt;/div&gt;&lt;div class=&quot;lake-content&quot;&gt;品&lt;/div&gt;&lt;div class=&quot;lake-content&quot;&gt;&lt;br&gt;&lt;/div&gt;" style="rounded=1;whiteSpace=wrap;html=1;align=center;verticalAlign=middle;direction=west;" vertex="1" parent="bcI5A2F_Ulys4gcZDIDl-1">
          <mxGeometry x="857" y="-1060" width="40" height="160" as="geometry" />
        </mxCell>
        <mxCell id="bcI5A2F_Ulys4gcZDIDl-80" value="&lt;div class=&quot;lake-content&quot;&gt;查&lt;/div&gt;&lt;div class=&quot;lake-content&quot;&gt;询&lt;/div&gt;&lt;div class=&quot;lake-content&quot;&gt;所&lt;/div&gt;&lt;div class=&quot;lake-content&quot;&gt;有&lt;/div&gt;&lt;div class=&quot;lake-content&quot;&gt;已&lt;/div&gt;&lt;div class=&quot;lake-content&quot;&gt;出&lt;/div&gt;&lt;div class=&quot;lake-content&quot;&gt;库&lt;/div&gt;&lt;div class=&quot;lake-content&quot;&gt;出&lt;/div&gt;&lt;div class=&quot;lake-content&quot;&gt;库&lt;/div&gt;&lt;div class=&quot;lake-content&quot;&gt;单&lt;/div&gt;&lt;div class=&quot;lake-content&quot;&gt;&lt;br&gt;&lt;/div&gt;" style="rounded=1;whiteSpace=wrap;html=1;align=center;verticalAlign=middle;direction=west;" vertex="1" parent="bcI5A2F_Ulys4gcZDIDl-1">
          <mxGeometry x="940" y="-1060" width="40" height="160" as="geometry" />
        </mxCell>
        <mxCell id="bcI5A2F_Ulys4gcZDIDl-81" value="&lt;div class=&quot;lake-content&quot;&gt;查&lt;/div&gt;&lt;div class=&quot;lake-content&quot;&gt;询&lt;/div&gt;&lt;div class=&quot;lake-content&quot;&gt;出&lt;/div&gt;&lt;div class=&quot;lake-content&quot;&gt;库&lt;/div&gt;&lt;div class=&quot;lake-content&quot;&gt;单&lt;/div&gt;&lt;div class=&quot;lake-content&quot;&gt;详&lt;/div&gt;&lt;div class=&quot;lake-content&quot;&gt;情&lt;/div&gt;&lt;div class=&quot;lake-content&quot;&gt;&lt;br&gt;&lt;/div&gt;" style="rounded=1;whiteSpace=wrap;html=1;align=center;verticalAlign=middle;direction=west;" vertex="1" parent="bcI5A2F_Ulys4gcZDIDl-1">
          <mxGeometry x="1000" y="-1060" width="40" height="160" as="geometry" />
        </mxCell>
        <mxCell id="bcI5A2F_Ulys4gcZDIDl-83" value="&lt;div class=&quot;lake-content&quot;&gt;指&lt;/div&gt;&lt;div class=&quot;lake-content&quot;&gt;派&lt;/div&gt;&lt;div class=&quot;lake-content&quot;&gt;任&lt;/div&gt;&lt;div class=&quot;lake-content&quot;&gt;务&lt;/div&gt;&lt;div class=&quot;lake-content&quot;&gt;&lt;br&gt;&lt;/div&gt;" style="rounded=1;whiteSpace=wrap;html=1;align=center;verticalAlign=middle;direction=west;" vertex="1" parent="bcI5A2F_Ulys4gcZDIDl-1">
          <mxGeometry x="887" y="-1335" width="40" height="110" as="geometry" />
        </mxCell>
        <mxCell id="bcI5A2F_Ulys4gcZDIDl-85" value="&lt;div class=&quot;lake-content&quot;&gt;初&lt;/div&gt;&lt;div class=&quot;lake-content&quot;&gt;始&lt;/div&gt;&lt;div class=&quot;lake-content&quot;&gt;化&lt;/div&gt;&lt;div class=&quot;lake-content&quot;&gt;冰&lt;/div&gt;&lt;div class=&quot;lake-content&quot;&gt;箱&lt;/div&gt;&lt;div class=&quot;lake-content&quot;&gt;&lt;br&gt;&lt;/div&gt;" style="rounded=1;whiteSpace=wrap;html=1;align=center;verticalAlign=middle;direction=west;" vertex="1" parent="bcI5A2F_Ulys4gcZDIDl-1">
          <mxGeometry x="837" y="-1335" width="40" height="110" as="geometry" />
        </mxCell>
        <mxCell id="bcI5A2F_Ulys4gcZDIDl-88" value="&lt;div class=&quot;lake-content&quot;&gt;&lt;br&gt;&lt;/div&gt;&lt;div class=&quot;lake-content&quot;&gt;修&lt;/div&gt;&lt;div class=&quot;lake-content&quot;&gt;改&lt;/div&gt;&lt;div class=&quot;lake-content&quot;&gt;账&lt;/div&gt;&lt;div class=&quot;lake-content&quot;&gt;号&lt;/div&gt;&lt;div class=&quot;lake-content&quot;&gt;状&lt;/div&gt;&lt;div class=&quot;lake-content&quot;&gt;态&lt;/div&gt;&lt;div class=&quot;lake-content&quot;&gt;&lt;br&gt;&lt;/div&gt;&lt;div class=&quot;lake-content&quot;&gt;&lt;br&gt;&lt;/div&gt;" style="rounded=1;whiteSpace=wrap;html=1;align=center;verticalAlign=middle;direction=west;" vertex="1" parent="bcI5A2F_Ulys4gcZDIDl-1">
          <mxGeometry x="991" y="-1335" width="40" height="110" as="geometry" />
        </mxCell>
        <mxCell id="bcI5A2F_Ulys4gcZDIDl-93" value="&lt;div class=&quot;lake-content&quot;&gt;选&lt;/div&gt;&lt;div class=&quot;lake-content&quot;&gt;择&lt;/div&gt;&lt;div class=&quot;lake-content&quot;&gt;项&lt;/div&gt;&lt;div class=&quot;lake-content&quot;&gt;目&lt;/div&gt;&lt;div class=&quot;lake-content&quot;&gt;&lt;br&gt;&lt;/div&gt;" style="rounded=1;whiteSpace=wrap;html=1;align=center;verticalAlign=middle;direction=west;" vertex="1" parent="bcI5A2F_Ulys4gcZDIDl-1">
          <mxGeometry x="-240" y="-924" width="40" height="110" as="geometry" />
        </mxCell>
        <mxCell id="bcI5A2F_Ulys4gcZDIDl-94" value="&lt;div class=&quot;lake-content&quot;&gt;选&lt;/div&gt;&lt;div class=&quot;lake-content&quot;&gt;择&lt;/div&gt;&lt;div class=&quot;lake-content&quot;&gt;入&lt;/div&gt;&lt;div class=&quot;lake-content&quot;&gt;库&lt;/div&gt;&lt;div class=&quot;lake-content&quot;&gt;冰&lt;/div&gt;&lt;div class=&quot;lake-content&quot;&gt;箱&lt;/div&gt;&lt;div class=&quot;lake-content&quot;&gt;&lt;br&gt;&lt;/div&gt;" style="rounded=1;whiteSpace=wrap;html=1;align=center;verticalAlign=middle;direction=west;" vertex="1" parent="bcI5A2F_Ulys4gcZDIDl-1">
          <mxGeometry x="20" y="-925" width="40" height="110" as="geometry" />
        </mxCell>
        <mxCell id="bcI5A2F_Ulys4gcZDIDl-95" value="&lt;div class=&quot;lake-content&quot;&gt;确&lt;/div&gt;&lt;div class=&quot;lake-content&quot;&gt;定&lt;/div&gt;&lt;div class=&quot;lake-content&quot;&gt;入&lt;/div&gt;&lt;div class=&quot;lake-content&quot;&gt;库&lt;/div&gt;&lt;div class=&quot;lake-content&quot;&gt;&lt;br&gt;&lt;/div&gt;" style="rounded=1;whiteSpace=wrap;html=1;align=center;verticalAlign=middle;direction=west;" vertex="1" parent="bcI5A2F_Ulys4gcZDIDl-1">
          <mxGeometry x="120" y="-925" width="40" height="110" as="geometry" />
        </mxCell>
        <mxCell id="bcI5A2F_Ulys4gcZDIDl-96" value="&lt;div class=&quot;lake-content&quot;&gt;智&lt;/div&gt;&lt;div class=&quot;lake-content&quot;&gt;能&lt;/div&gt;&lt;div class=&quot;lake-content&quot;&gt;分&lt;/div&gt;&lt;div class=&quot;lake-content&quot;&gt;配&lt;/div&gt;&lt;div class=&quot;lake-content&quot;&gt;孔&lt;/div&gt;&lt;div class=&quot;lake-content&quot;&gt;位&lt;/div&gt;&lt;div class=&quot;lake-content&quot;&gt;&lt;br&gt;&lt;/div&gt;" style="rounded=1;whiteSpace=wrap;html=1;align=center;verticalAlign=middle;direction=west;" vertex="1" parent="bcI5A2F_Ulys4gcZDIDl-1">
          <mxGeometry x="70" y="-924" width="40" height="110" as="geometry" />
        </mxCell>
        <mxCell id="bcI5A2F_Ulys4gcZDIDl-97" value="&lt;div class=&quot;lake-content&quot;&gt;二&lt;/div&gt;&lt;div class=&quot;lake-content&quot;&gt;维&lt;/div&gt;&lt;div class=&quot;lake-content&quot;&gt;码&lt;/div&gt;&lt;div class=&quot;lake-content&quot;&gt;导&lt;/div&gt;&lt;div class=&quot;lake-content&quot;&gt;入&lt;/div&gt;&lt;div class=&quot;lake-content&quot;&gt;&lt;br&gt;&lt;/div&gt;" style="rounded=1;whiteSpace=wrap;html=1;align=center;verticalAlign=middle;direction=west;" vertex="1" parent="bcI5A2F_Ulys4gcZDIDl-1">
          <mxGeometry x="-183" y="-924" width="40" height="110" as="geometry" />
        </mxCell>
        <mxCell id="bcI5A2F_Ulys4gcZDIDl-98" value="&lt;div class=&quot;lake-content&quot;&gt;设&lt;/div&gt;&lt;div class=&quot;lake-content&quot;&gt;置&lt;/div&gt;&lt;div class=&quot;lake-content&quot;&gt;盒&lt;/div&gt;&lt;div class=&quot;lake-content&quot;&gt;子&lt;/div&gt;&lt;div class=&quot;lake-content&quot;&gt;容&lt;/div&gt;&lt;div class=&quot;lake-content&quot;&gt;量&lt;/div&gt;&lt;div class=&quot;lake-content&quot;&gt;&lt;br&gt;&lt;/div&gt;" style="rounded=1;whiteSpace=wrap;html=1;align=center;verticalAlign=middle;direction=west;" vertex="1" parent="bcI5A2F_Ulys4gcZDIDl-1">
          <mxGeometry x="-130" y="-925" width="40" height="110" as="geometry" />
        </mxCell>
        <mxCell id="bcI5A2F_Ulys4gcZDIDl-99" value="&lt;div class=&quot;lake-content&quot;&gt;样&lt;/div&gt;&lt;div class=&quot;lake-content&quot;&gt;本&lt;/div&gt;&lt;div class=&quot;lake-content&quot;&gt;导&lt;/div&gt;&lt;div class=&quot;lake-content&quot;&gt;入&lt;/div&gt;&lt;div class=&quot;lake-content&quot;&gt;&lt;br&gt;&lt;/div&gt;" style="rounded=1;whiteSpace=wrap;html=1;align=center;verticalAlign=middle;direction=west;" vertex="1" parent="bcI5A2F_Ulys4gcZDIDl-1">
          <mxGeometry x="-80" y="-925" width="40" height="110" as="geometry" />
        </mxCell>
        <mxCell id="bcI5A2F_Ulys4gcZDIDl-100" value="&lt;div class=&quot;lake-content&quot;&gt;整&lt;/div&gt;&lt;div class=&quot;lake-content&quot;&gt;盒&lt;/div&gt;&lt;div class=&quot;lake-content&quot;&gt;/&lt;/div&gt;&lt;div class=&quot;lake-content&quot;&gt;非&lt;/div&gt;&lt;div class=&quot;lake-content&quot;&gt;整&lt;/div&gt;&lt;div class=&quot;lake-content&quot;&gt;盒&lt;/div&gt;&lt;div class=&quot;lake-content&quot;&gt;设&lt;/div&gt;&lt;div class=&quot;lake-content&quot;&gt;置&lt;/div&gt;&lt;div class=&quot;lake-content&quot;&gt;&lt;br&gt;&lt;/div&gt;" style="rounded=1;whiteSpace=wrap;html=1;align=center;verticalAlign=middle;direction=west;" vertex="1" parent="bcI5A2F_Ulys4gcZDIDl-1">
          <mxGeometry x="-30" y="-925" width="40" height="140" as="geometry" />
        </mxCell>
        <mxCell id="bcI5A2F_Ulys4gcZDIDl-103" value="&lt;div class=&quot;lake-content&quot;&gt;查&lt;/div&gt;&lt;div class=&quot;lake-content&quot;&gt;看&lt;/div&gt;&lt;div class=&quot;lake-content&quot;&gt;入&lt;/div&gt;&lt;div class=&quot;lake-content&quot;&gt;库&lt;/div&gt;&lt;div class=&quot;lake-content&quot;&gt;单&lt;/div&gt;&lt;div class=&quot;lake-content&quot;&gt;详&lt;/div&gt;&lt;div class=&quot;lake-content&quot;&gt;情&lt;/div&gt;&lt;div class=&quot;lake-content&quot;&gt;&lt;br&gt;&lt;/div&gt;" style="rounded=1;whiteSpace=wrap;html=1;align=center;verticalAlign=middle;direction=west;" vertex="1" parent="bcI5A2F_Ulys4gcZDIDl-1">
          <mxGeometry x="119" y="-1275" width="40" height="120" as="geometry" />
        </mxCell>
        <mxCell id="bcI5A2F_Ulys4gcZDIDl-104" value="&lt;div class=&quot;lake-content&quot;&gt;入&lt;/div&gt;&lt;div class=&quot;lake-content&quot;&gt;库&lt;/div&gt;&lt;div class=&quot;lake-content&quot;&gt;单&lt;/div&gt;&lt;div class=&quot;lake-content&quot;&gt;该&lt;/div&gt;&lt;div class=&quot;lake-content&quot;&gt;要&lt;/div&gt;&lt;div class=&quot;lake-content&quot;&gt;&lt;br&gt;&lt;/div&gt;" style="rounded=1;whiteSpace=wrap;html=1;align=center;verticalAlign=middle;direction=west;" vertex="1" parent="bcI5A2F_Ulys4gcZDIDl-1">
          <mxGeometry x="69" y="-1274" width="40" height="110" as="geometry" />
        </mxCell>
        <mxCell id="bcI5A2F_Ulys4gcZDIDl-128" value="&lt;div class=&quot;lake-content&quot;&gt;导&lt;/div&gt;&lt;div class=&quot;lake-content&quot;&gt;入&lt;/div&gt;&lt;div class=&quot;lake-content&quot;&gt;E&lt;/div&gt;&lt;div class=&quot;lake-content&quot;&gt;x&lt;/div&gt;&lt;div class=&quot;lake-content&quot;&gt;c&lt;/div&gt;&lt;div class=&quot;lake-content&quot;&gt;e&lt;/div&gt;&lt;div class=&quot;lake-content&quot;&gt;l&lt;/div&gt;&lt;div class=&quot;lake-content&quot;&gt;&lt;br&gt;&lt;/div&gt;" style="rounded=1;whiteSpace=wrap;html=1;align=center;verticalAlign=middle;direction=west;" vertex="1" parent="bcI5A2F_Ulys4gcZDIDl-1">
          <mxGeometry x="170" y="-1274" width="40" height="119" as="geometry" />
        </mxCell>
        <mxCell id="bcI5A2F_Ulys4gcZDIDl-131" value="" style="endArrow=none;html=1;entryX=0.5;entryY=0;entryDx=0;entryDy=0;edgeStyle=orthogonalEdgeStyle;" edge="1" parent="bcI5A2F_Ulys4gcZDIDl-1" target="bcI5A2F_Ulys4gcZDIDl-45">
          <mxGeometry width="50" height="50" relative="1" as="geometry">
            <mxPoint x="-40" y="-1295" as="sourcePoint" />
            <mxPoint x="50" y="-1345" as="targetPoint" />
          </mxGeometry>
        </mxCell>
      </root>
    </mxGraphModel>
  </diagram>
  <diagram id="qUtDUimlyPl9PsAqhUIx" name="Page-3">
    <mxGraphModel dx="1810" dy="450" grid="1" gridSize="10" guides="1" tooltips="1" connect="1" arrows="1" fold="1" page="1" pageScale="1" pageWidth="827" pageHeight="1169" math="0" shadow="0">
      <root>
        <mxCell id="ew_Su8h-PxoddZhxcQE--0" />
        <mxCell id="ew_Su8h-PxoddZhxcQE--1" parent="ew_Su8h-PxoddZhxcQE--0" />
        <mxCell id="ew_Su8h-PxoddZhxcQE--2" value="Actor" style="shape=umlActor;verticalLabelPosition=bottom;verticalAlign=top;html=1;outlineConnect=0;gradientColor=none;" vertex="1" parent="ew_Su8h-PxoddZhxcQE--1">
          <mxGeometry x="-140" y="260" width="30" height="60" as="geometry" />
        </mxCell>
        <mxCell id="uWvXkAy5V0pgmHXDcvGc-0" value="" style="ellipse;whiteSpace=wrap;html=1;gradientColor=none;verticalAlign=middle;" vertex="1" parent="ew_Su8h-PxoddZhxcQE--1">
          <mxGeometry y="170" width="80" height="40" as="geometry" />
        </mxCell>
        <mxCell id="uWvXkAy5V0pgmHXDcvGc-5" value="" style="ellipse;whiteSpace=wrap;html=1;gradientColor=none;verticalAlign=middle;" vertex="1" parent="ew_Su8h-PxoddZhxcQE--1">
          <mxGeometry y="220" width="80" height="40" as="geometry" />
        </mxCell>
        <mxCell id="uWvXkAy5V0pgmHXDcvGc-6" value="" style="ellipse;whiteSpace=wrap;html=1;gradientColor=none;verticalAlign=middle;" vertex="1" parent="ew_Su8h-PxoddZhxcQE--1">
          <mxGeometry y="270" width="80" height="40" as="geometry" />
        </mxCell>
        <mxCell id="uWvXkAy5V0pgmHXDcvGc-7" value="" style="ellipse;whiteSpace=wrap;html=1;gradientColor=none;verticalAlign=middle;" vertex="1" parent="ew_Su8h-PxoddZhxcQE--1">
          <mxGeometry y="320" width="80" height="40" as="geometry" />
        </mxCell>
        <mxCell id="uWvXkAy5V0pgmHXDcvGc-8" value="" style="ellipse;whiteSpace=wrap;html=1;gradientColor=none;verticalAlign=middle;" vertex="1" parent="ew_Su8h-PxoddZhxcQE--1">
          <mxGeometry y="370" width="80" height="40" as="geometry" />
        </mxCell>
        <mxCell id="uWvXkAy5V0pgmHXDcvGc-10" value="" style="endArrow=classic;html=1;entryX=0;entryY=0.5;entryDx=0;entryDy=0;" edge="1" parent="ew_Su8h-PxoddZhxcQE--1" target="uWvXkAy5V0pgmHXDcvGc-0">
          <mxGeometry width="50" height="50" relative="1" as="geometry">
            <mxPoint x="-100" y="270" as="sourcePoint" />
            <mxPoint x="-20" y="250" as="targetPoint" />
          </mxGeometry>
        </mxCell>
      </root>
    </mxGraphModel>
  </diagram>
  <diagram id="mHmdkWW5AzUNQWK45fn8" name="Page-4">
    <mxGraphModel dx="5728" dy="3015" grid="1" gridSize="10" guides="1" tooltips="1" connect="1" arrows="1" fold="1" page="1" pageScale="1" pageWidth="827" pageHeight="1169" math="0" shadow="0">
      <root>
        <mxCell id="PjkLEHFJH_S7j5Nac1_n-0" />
        <mxCell id="PjkLEHFJH_S7j5Nac1_n-1" parent="PjkLEHFJH_S7j5Nac1_n-0" />
        <mxCell id="CbqCbyVV5nw6GIlTXYTx-64" value="" style="edgeStyle=orthogonalEdgeStyle;rounded=0;orthogonalLoop=1;jettySize=auto;html=1;exitX=1;exitY=0.5;exitDx=0;exitDy=0;entryX=0.5;entryY=1;entryDx=0;entryDy=0;endArrow=none;endFill=0;fontSize=15;" parent="PjkLEHFJH_S7j5Nac1_n-1" source="PjkLEHFJH_S7j5Nac1_n-2" target="sd-PTnzk6fwNJQMEQ3Mg-30" edge="1">
          <mxGeometry relative="1" as="geometry">
            <Array as="points">
              <mxPoint x="1524" y="740" />
            </Array>
            <mxPoint x="1878.4300000000003" y="440" as="targetPoint" />
          </mxGeometry>
        </mxCell>
        <mxCell id="sd-PTnzk6fwNJQMEQ3Mg-32" value="1" style="edgeLabel;html=1;align=center;verticalAlign=middle;resizable=0;points=[];fontSize=60;" vertex="1" connectable="0" parent="CbqCbyVV5nw6GIlTXYTx-64">
          <mxGeometry x="0.4472" y="2" relative="1" as="geometry">
            <mxPoint as="offset" />
          </mxGeometry>
        </mxCell>
        <mxCell id="CbqCbyVV5nw6GIlTXYTx-65" style="edgeStyle=orthogonalEdgeStyle;rounded=0;orthogonalLoop=1;jettySize=auto;html=1;exitX=1;exitY=0.5;exitDx=0;exitDy=0;endArrow=none;endFill=0;entryX=0;entryY=0.5;entryDx=0;entryDy=0;" parent="PjkLEHFJH_S7j5Nac1_n-1" source="PjkLEHFJH_S7j5Nac1_n-2" target="CbqCbyVV5nw6GIlTXYTx-66" edge="1">
          <mxGeometry relative="1" as="geometry">
            <mxPoint x="1599.9999999999995" y="800.4285714285716" as="targetPoint" />
            <Array as="points">
              <mxPoint x="1553" y="710" />
              <mxPoint x="1978" y="710" />
            </Array>
          </mxGeometry>
        </mxCell>
        <mxCell id="CbqCbyVV5nw6GIlTXYTx-68" style="edgeStyle=orthogonalEdgeStyle;rounded=0;orthogonalLoop=1;jettySize=auto;html=1;exitX=1;exitY=0.5;exitDx=0;exitDy=0;endArrow=none;endFill=0;entryX=0.5;entryY=0;entryDx=0;entryDy=0;" parent="PjkLEHFJH_S7j5Nac1_n-1" source="PjkLEHFJH_S7j5Nac1_n-2" target="CbqCbyVV5nw6GIlTXYTx-69" edge="1">
          <mxGeometry relative="1" as="geometry">
            <mxPoint x="1579.9999999999995" y="959.9999999999998" as="targetPoint" />
          </mxGeometry>
        </mxCell>
        <mxCell id="sd-PTnzk6fwNJQMEQ3Mg-9" value="1" style="edgeLabel;html=1;align=center;verticalAlign=middle;resizable=0;points=[];fontSize=80;" vertex="1" connectable="0" parent="CbqCbyVV5nw6GIlTXYTx-68">
          <mxGeometry x="0.5137" y="3" relative="1" as="geometry">
            <mxPoint as="offset" />
          </mxGeometry>
        </mxCell>
        <mxCell id="PjkLEHFJH_S7j5Nac1_n-2" value="项目" style="rounded=1;whiteSpace=wrap;html=1;verticalAlign=middle;fontSize=40;fillColor=#dae8fc;strokeColor=#6c8ebf;" parent="PjkLEHFJH_S7j5Nac1_n-1" vertex="1">
          <mxGeometry x="1433" y="710" width="120" height="60" as="geometry" />
        </mxCell>
        <mxCell id="CbqCbyVV5nw6GIlTXYTx-1" value="国家编码（项目编码）" style="rounded=1;whiteSpace=wrap;html=1;verticalAlign=middle;fontSize=20;fillColor=#dae8fc;strokeColor=#6c8ebf;" parent="PjkLEHFJH_S7j5Nac1_n-1" vertex="1">
          <mxGeometry x="740" y="710" width="220" height="50" as="geometry" />
        </mxCell>
        <mxCell id="CbqCbyVV5nw6GIlTXYTx-2" value="部门" style="rounded=1;whiteSpace=wrap;html=1;verticalAlign=middle;fontSize=40;fillColor=#dae8fc;strokeColor=#6c8ebf;" parent="PjkLEHFJH_S7j5Nac1_n-1" vertex="1">
          <mxGeometry x="2380" y="1420" width="120" height="60" as="geometry" />
        </mxCell>
        <mxCell id="itYfapkiOXWNwM8EMgjb-7" style="edgeStyle=orthogonalEdgeStyle;rounded=0;orthogonalLoop=1;jettySize=auto;html=1;exitX=0.5;exitY=0;exitDx=0;exitDy=0;entryX=0.5;entryY=1;entryDx=0;entryDy=0;fontSize=15;endArrow=none;endFill=0;" parent="PjkLEHFJH_S7j5Nac1_n-1" source="CbqCbyVV5nw6GIlTXYTx-4" target="CbqCbyVV5nw6GIlTXYTx-77" edge="1">
          <mxGeometry relative="1" as="geometry" />
        </mxCell>
        <mxCell id="itYfapkiOXWNwM8EMgjb-8" value="n" style="edgeLabel;html=1;align=center;verticalAlign=middle;resizable=0;points=[];fontSize=80;" parent="itYfapkiOXWNwM8EMgjb-7" vertex="1" connectable="0">
          <mxGeometry x="-0.2989" y="1" relative="1" as="geometry">
            <mxPoint as="offset" />
          </mxGeometry>
        </mxCell>
        <mxCell id="itYfapkiOXWNwM8EMgjb-18" style="edgeStyle=orthogonalEdgeStyle;rounded=0;orthogonalLoop=1;jettySize=auto;html=1;exitX=1;exitY=0.25;exitDx=0;exitDy=0;fontSize=15;endArrow=none;endFill=0;entryX=0;entryY=0.5;entryDx=0;entryDy=0;" parent="PjkLEHFJH_S7j5Nac1_n-1" source="CbqCbyVV5nw6GIlTXYTx-4" target="itYfapkiOXWNwM8EMgjb-19" edge="1">
          <mxGeometry relative="1" as="geometry">
            <mxPoint x="920" y="519.6666666666667" as="targetPoint" />
          </mxGeometry>
        </mxCell>
        <mxCell id="itYfapkiOXWNwM8EMgjb-22" value="n" style="edgeLabel;html=1;align=center;verticalAlign=middle;resizable=0;points=[];fontSize=80;" parent="itYfapkiOXWNwM8EMgjb-18" vertex="1" connectable="0">
          <mxGeometry x="-0.074" y="4" relative="1" as="geometry">
            <mxPoint x="1" as="offset" />
          </mxGeometry>
        </mxCell>
        <mxCell id="itYfapkiOXWNwM8EMgjb-32" style="edgeStyle=orthogonalEdgeStyle;rounded=0;orthogonalLoop=1;jettySize=auto;html=1;exitX=0.5;exitY=1;exitDx=0;exitDy=0;fontSize=15;endArrow=none;endFill=0;entryX=0.5;entryY=0;entryDx=0;entryDy=0;" parent="PjkLEHFJH_S7j5Nac1_n-1" source="CbqCbyVV5nw6GIlTXYTx-4" target="itYfapkiOXWNwM8EMgjb-33" edge="1">
          <mxGeometry relative="1" as="geometry">
            <mxPoint x="487.66666666666697" y="640.0000000000002" as="targetPoint" />
          </mxGeometry>
        </mxCell>
        <mxCell id="itYfapkiOXWNwM8EMgjb-36" value="1" style="edgeLabel;html=1;align=center;verticalAlign=middle;resizable=0;points=[];fontSize=80;" parent="itYfapkiOXWNwM8EMgjb-32" vertex="1" connectable="0">
          <mxGeometry x="-0.0926" y="-1" relative="1" as="geometry">
            <mxPoint as="offset" />
          </mxGeometry>
        </mxCell>
        <mxCell id="CbqCbyVV5nw6GIlTXYTx-4" value="样本信息" style="rounded=1;whiteSpace=wrap;html=1;verticalAlign=middle;fontSize=40;fillColor=#dae8fc;strokeColor=#6c8ebf;" parent="PjkLEHFJH_S7j5Nac1_n-1" vertex="1">
          <mxGeometry x="180" y="505" width="167.14" height="65" as="geometry" />
        </mxCell>
        <mxCell id="CbqCbyVV5nw6GIlTXYTx-28" style="edgeStyle=orthogonalEdgeStyle;rounded=0;orthogonalLoop=1;jettySize=auto;html=1;exitX=1;exitY=0.5;exitDx=0;exitDy=0;entryX=0;entryY=0.5;entryDx=0;entryDy=0;endArrow=none;endFill=0;" parent="PjkLEHFJH_S7j5Nac1_n-1" source="CbqCbyVV5nw6GIlTXYTx-5" target="CbqCbyVV5nw6GIlTXYTx-31" edge="1">
          <mxGeometry relative="1" as="geometry">
            <mxPoint x="-287.0000000000168" y="534.9999999999998" as="targetPoint" />
            <Array as="points" />
          </mxGeometry>
        </mxCell>
        <mxCell id="CbqCbyVV5nw6GIlTXYTx-34" value="1" style="edgeLabel;html=1;align=center;verticalAlign=middle;resizable=0;points=[];fontSize=15;" parent="CbqCbyVV5nw6GIlTXYTx-28" vertex="1" connectable="0">
          <mxGeometry x="0.1268" relative="1" as="geometry">
            <mxPoint as="offset" />
          </mxGeometry>
        </mxCell>
        <mxCell id="CbqCbyVV5nw6GIlTXYTx-5" value="二维码" style="rounded=1;whiteSpace=wrap;html=1;verticalAlign=middle;fontSize=40;fillColor=#dae8fc;strokeColor=#6c8ebf;" parent="PjkLEHFJH_S7j5Nac1_n-1" vertex="1">
          <mxGeometry x="-580" y="505" width="163" height="65" as="geometry" />
        </mxCell>
        <mxCell id="CbqCbyVV5nw6GIlTXYTx-46" style="edgeStyle=orthogonalEdgeStyle;rounded=0;orthogonalLoop=1;jettySize=auto;html=1;exitX=0.5;exitY=1;exitDx=0;exitDy=0;endArrow=none;endFill=0;entryX=0.5;entryY=0;entryDx=0;entryDy=0;" parent="PjkLEHFJH_S7j5Nac1_n-1" source="CbqCbyVV5nw6GIlTXYTx-6" target="CbqCbyVV5nw6GIlTXYTx-47" edge="1">
          <mxGeometry relative="1" as="geometry">
            <mxPoint x="2440.1428571428573" y="850" as="targetPoint" />
          </mxGeometry>
        </mxCell>
        <mxCell id="sd-PTnzk6fwNJQMEQ3Mg-4" value="1" style="edgeLabel;html=1;align=center;verticalAlign=middle;resizable=0;points=[];fontSize=80;" vertex="1" connectable="0" parent="CbqCbyVV5nw6GIlTXYTx-46">
          <mxGeometry x="-0.0593" relative="1" as="geometry">
            <mxPoint as="offset" />
          </mxGeometry>
        </mxCell>
        <mxCell id="CbqCbyVV5nw6GIlTXYTx-6" value="医院" style="rounded=1;whiteSpace=wrap;html=1;verticalAlign=middle;fontSize=40;fillColor=#dae8fc;strokeColor=#6c8ebf;" parent="PjkLEHFJH_S7j5Nac1_n-1" vertex="1">
          <mxGeometry x="2380" y="750" width="120" height="60" as="geometry" />
        </mxCell>
        <mxCell id="CbqCbyVV5nw6GIlTXYTx-51" style="edgeStyle=orthogonalEdgeStyle;rounded=0;orthogonalLoop=1;jettySize=auto;html=1;exitX=1;exitY=0.5;exitDx=0;exitDy=0;endArrow=none;endFill=0;entryX=0.5;entryY=0;entryDx=0;entryDy=0;fontSize=15;" parent="PjkLEHFJH_S7j5Nac1_n-1" source="CbqCbyVV5nw6GIlTXYTx-7" target="CbqCbyVV5nw6GIlTXYTx-52" edge="1">
          <mxGeometry relative="1" as="geometry">
            <mxPoint x="287.2828571428573" y="-170" as="targetPoint" />
            <Array as="points">
              <mxPoint x="-320" y="-270" />
              <mxPoint x="287" y="-270" />
            </Array>
          </mxGeometry>
        </mxCell>
        <mxCell id="sd-PTnzk6fwNJQMEQ3Mg-24" value="1" style="edgeLabel;html=1;align=center;verticalAlign=middle;resizable=0;points=[];fontSize=60;" vertex="1" connectable="0" parent="CbqCbyVV5nw6GIlTXYTx-51">
          <mxGeometry x="-0.2798" y="-1" relative="1" as="geometry">
            <mxPoint as="offset" />
          </mxGeometry>
        </mxCell>
        <mxCell id="CbqCbyVV5nw6GIlTXYTx-7" value="设备" style="rounded=1;whiteSpace=wrap;html=1;verticalAlign=middle;fontSize=40;fillColor=#dae8fc;strokeColor=#6c8ebf;" parent="PjkLEHFJH_S7j5Nac1_n-1" vertex="1">
          <mxGeometry x="-440" y="-270" width="120" height="60" as="geometry" />
        </mxCell>
        <mxCell id="CbqCbyVV5nw6GIlTXYTx-8" value="donator_countrycode" style="rounded=1;whiteSpace=wrap;html=1;gradientColor=none;verticalAlign=middle;" parent="PjkLEHFJH_S7j5Nac1_n-1" vertex="1">
          <mxGeometry x="-1500" y="760" width="120" height="60" as="geometry" />
        </mxCell>
        <mxCell id="CbqCbyVV5nw6GIlTXYTx-10" value="error_reason_for_audit" style="rounded=1;whiteSpace=wrap;html=1;gradientColor=none;verticalAlign=middle;" parent="PjkLEHFJH_S7j5Nac1_n-1" vertex="1">
          <mxGeometry x="-1500" y="840" width="120" height="60" as="geometry" />
        </mxCell>
        <mxCell id="CbqCbyVV5nw6GIlTXYTx-11" value="guide_info&lt;br&gt;" style="rounded=1;whiteSpace=wrap;html=1;gradientColor=none;verticalAlign=middle;" parent="PjkLEHFJH_S7j5Nac1_n-1" vertex="1">
          <mxGeometry x="-1220" y="840" width="120" height="60" as="geometry" />
        </mxCell>
        <mxCell id="CbqCbyVV5nw6GIlTXYTx-12" value="孔位表" style="rounded=1;whiteSpace=wrap;html=1;verticalAlign=middle;fontSize=40;fillColor=#dae8fc;strokeColor=#6c8ebf;" parent="PjkLEHFJH_S7j5Nac1_n-1" vertex="1">
          <mxGeometry x="227.14" y="-40" width="142.86" height="60" as="geometry" />
        </mxCell>
        <mxCell id="CbqCbyVV5nw6GIlTXYTx-57" style="edgeStyle=orthogonalEdgeStyle;rounded=0;orthogonalLoop=1;jettySize=auto;html=1;exitX=0.5;exitY=1;exitDx=0;exitDy=0;entryX=0.5;entryY=0;entryDx=0;entryDy=0;endArrow=none;endFill=0;" parent="PjkLEHFJH_S7j5Nac1_n-1" source="CbqCbyVV5nw6GIlTXYTx-13" target="CbqCbyVV5nw6GIlTXYTx-56" edge="1">
          <mxGeometry relative="1" as="geometry" />
        </mxCell>
        <mxCell id="CbqCbyVV5nw6GIlTXYTx-85" value="1" style="edgeLabel;html=1;align=center;verticalAlign=middle;resizable=0;points=[];fontSize=15;" parent="CbqCbyVV5nw6GIlTXYTx-57" vertex="1" connectable="0">
          <mxGeometry x="-0.081" relative="1" as="geometry">
            <mxPoint x="190" y="3" as="offset" />
          </mxGeometry>
        </mxCell>
        <mxCell id="sd-PTnzk6fwNJQMEQ3Mg-22" value="1" style="edgeLabel;html=1;align=center;verticalAlign=middle;resizable=0;points=[];fontSize=80;" vertex="1" connectable="0" parent="CbqCbyVV5nw6GIlTXYTx-57">
          <mxGeometry x="-0.1233" relative="1" as="geometry">
            <mxPoint as="offset" />
          </mxGeometry>
        </mxCell>
        <mxCell id="CbqCbyVV5nw6GIlTXYTx-13" value="登录" style="rounded=1;whiteSpace=wrap;html=1;verticalAlign=middle;fontSize=40;fillColor=#dae8fc;strokeColor=#6c8ebf;" parent="PjkLEHFJH_S7j5Nac1_n-1" vertex="1">
          <mxGeometry x="-450" y="810" width="120" height="60" as="geometry" />
        </mxCell>
        <mxCell id="CbqCbyVV5nw6GIlTXYTx-14" value="operate_delivery" style="rounded=1;whiteSpace=wrap;html=1;gradientColor=none;verticalAlign=middle;" parent="PjkLEHFJH_S7j5Nac1_n-1" vertex="1">
          <mxGeometry x="-1360" y="760" width="120" height="60" as="geometry" />
        </mxCell>
        <mxCell id="CbqCbyVV5nw6GIlTXYTx-15" value="operate_storage" style="rounded=1;whiteSpace=wrap;html=1;gradientColor=none;verticalAlign=middle;" parent="PjkLEHFJH_S7j5Nac1_n-1" vertex="1">
          <mxGeometry x="-1360" y="840" width="120" height="60" as="geometry" />
        </mxCell>
        <mxCell id="itYfapkiOXWNwM8EMgjb-3" style="edgeStyle=orthogonalEdgeStyle;rounded=0;orthogonalLoop=1;jettySize=auto;html=1;exitX=1;exitY=0.75;exitDx=0;exitDy=0;fontSize=80;endArrow=none;endFill=0;entryX=0.5;entryY=1;entryDx=0;entryDy=0;" parent="PjkLEHFJH_S7j5Nac1_n-1" source="CbqCbyVV5nw6GIlTXYTx-16" target="itYfapkiOXWNwM8EMgjb-4" edge="1">
          <mxGeometry relative="1" as="geometry">
            <mxPoint x="600" y="860" as="targetPoint" />
          </mxGeometry>
        </mxCell>
        <mxCell id="itYfapkiOXWNwM8EMgjb-15" value="n" style="edgeLabel;html=1;align=center;verticalAlign=middle;resizable=0;points=[];fontSize=15;" parent="itYfapkiOXWNwM8EMgjb-3" vertex="1" connectable="0">
          <mxGeometry x="0.1173" y="-1" relative="1" as="geometry">
            <mxPoint y="-46" as="offset" />
          </mxGeometry>
        </mxCell>
        <mxCell id="sd-PTnzk6fwNJQMEQ3Mg-16" value="n" style="edgeLabel;html=1;align=center;verticalAlign=middle;resizable=0;points=[];fontSize=80;" vertex="1" connectable="0" parent="itYfapkiOXWNwM8EMgjb-3">
          <mxGeometry x="0.125" relative="1" as="geometry">
            <mxPoint as="offset" />
          </mxGeometry>
        </mxCell>
        <mxCell id="itYfapkiOXWNwM8EMgjb-50" style="edgeStyle=orthogonalEdgeStyle;rounded=0;orthogonalLoop=1;jettySize=auto;html=1;exitX=1;exitY=1;exitDx=0;exitDy=0;fontSize=15;endArrow=none;endFill=0;entryX=0.5;entryY=1;entryDx=0;entryDy=0;" parent="PjkLEHFJH_S7j5Nac1_n-1" source="CbqCbyVV5nw6GIlTXYTx-16" target="itYfapkiOXWNwM8EMgjb-51" edge="1">
          <mxGeometry relative="1" as="geometry">
            <mxPoint x="820" y="1380" as="targetPoint" />
            <Array as="points">
              <mxPoint x="-707" y="1690" />
              <mxPoint x="820" y="1690" />
            </Array>
          </mxGeometry>
        </mxCell>
        <mxCell id="itYfapkiOXWNwM8EMgjb-54" value="1" style="edgeLabel;html=1;align=center;verticalAlign=middle;resizable=0;points=[];fontSize=15;" parent="itYfapkiOXWNwM8EMgjb-50" vertex="1" connectable="0">
          <mxGeometry x="0.0247" y="2" relative="1" as="geometry">
            <mxPoint as="offset" />
          </mxGeometry>
        </mxCell>
        <mxCell id="sd-PTnzk6fwNJQMEQ3Mg-14" value="1" style="edgeLabel;html=1;align=center;verticalAlign=middle;resizable=0;points=[];fontSize=80;" vertex="1" connectable="0" parent="itYfapkiOXWNwM8EMgjb-50">
          <mxGeometry x="0.023" y="3" relative="1" as="geometry">
            <mxPoint as="offset" />
          </mxGeometry>
        </mxCell>
        <mxCell id="itYfapkiOXWNwM8EMgjb-55" style="edgeStyle=orthogonalEdgeStyle;rounded=0;orthogonalLoop=1;jettySize=auto;html=1;exitX=1;exitY=1;exitDx=0;exitDy=0;fontSize=80;endArrow=none;endFill=0;entryX=0.5;entryY=1;entryDx=0;entryDy=0;" parent="PjkLEHFJH_S7j5Nac1_n-1" source="CbqCbyVV5nw6GIlTXYTx-16" target="itYfapkiOXWNwM8EMgjb-56" edge="1">
          <mxGeometry relative="1" as="geometry">
            <mxPoint x="1290" y="1250" as="targetPoint" />
            <Array as="points">
              <mxPoint x="-330" y="1790" />
              <mxPoint x="1493" y="1790" />
            </Array>
          </mxGeometry>
        </mxCell>
        <mxCell id="sd-PTnzk6fwNJQMEQ3Mg-11" value="m" style="edgeLabel;html=1;align=center;verticalAlign=middle;resizable=0;points=[];fontSize=80;" vertex="1" connectable="0" parent="itYfapkiOXWNwM8EMgjb-55">
          <mxGeometry x="0.0557" y="4" relative="1" as="geometry">
            <mxPoint as="offset" />
          </mxGeometry>
        </mxCell>
        <mxCell id="itYfapkiOXWNwM8EMgjb-71" style="edgeStyle=orthogonalEdgeStyle;rounded=0;orthogonalLoop=1;jettySize=auto;html=1;exitX=1;exitY=0.25;exitDx=0;exitDy=0;fontSize=15;endArrow=none;endFill=0;entryX=0.5;entryY=1;entryDx=0;entryDy=0;" parent="PjkLEHFJH_S7j5Nac1_n-1" source="CbqCbyVV5nw6GIlTXYTx-16" target="itYfapkiOXWNwM8EMgjb-72" edge="1">
          <mxGeometry relative="1" as="geometry">
            <mxPoint x="10" y="860.0000000000002" as="targetPoint" />
          </mxGeometry>
        </mxCell>
        <mxCell id="sd-PTnzk6fwNJQMEQ3Mg-17" value="n" style="edgeLabel;html=1;align=center;verticalAlign=middle;resizable=0;points=[];fontSize=80;" vertex="1" connectable="0" parent="itYfapkiOXWNwM8EMgjb-71">
          <mxGeometry x="0.473" y="-1" relative="1" as="geometry">
            <mxPoint y="-1" as="offset" />
          </mxGeometry>
        </mxCell>
        <mxCell id="itYfapkiOXWNwM8EMgjb-80" style="edgeStyle=orthogonalEdgeStyle;rounded=0;orthogonalLoop=1;jettySize=auto;html=1;exitX=0.75;exitY=1;exitDx=0;exitDy=0;fontSize=15;endArrow=none;endFill=0;entryX=0.5;entryY=1;entryDx=0;entryDy=0;" parent="PjkLEHFJH_S7j5Nac1_n-1" source="CbqCbyVV5nw6GIlTXYTx-16" target="itYfapkiOXWNwM8EMgjb-81" edge="1">
          <mxGeometry relative="1" as="geometry">
            <mxPoint x="1110" y="1600" as="targetPoint" />
            <Array as="points">
              <mxPoint x="-360" y="2160" />
              <mxPoint x="1160" y="2160" />
            </Array>
          </mxGeometry>
        </mxCell>
        <mxCell id="sd-PTnzk6fwNJQMEQ3Mg-13" value="m" style="edgeLabel;html=1;align=center;verticalAlign=middle;resizable=0;points=[];fontSize=80;" vertex="1" connectable="0" parent="itYfapkiOXWNwM8EMgjb-80">
          <mxGeometry x="0.334" y="-1" relative="1" as="geometry">
            <mxPoint as="offset" />
          </mxGeometry>
        </mxCell>
        <mxCell id="sd-PTnzk6fwNJQMEQ3Mg-0" style="edgeStyle=orthogonalEdgeStyle;rounded=0;orthogonalLoop=1;jettySize=auto;html=1;exitX=0.25;exitY=0;exitDx=0;exitDy=0;fontSize=15;endArrow=none;endFill=0;entryX=0.5;entryY=0;entryDx=0;entryDy=0;" edge="1" parent="PjkLEHFJH_S7j5Nac1_n-1" source="CbqCbyVV5nw6GIlTXYTx-16" target="itYfapkiOXWNwM8EMgjb-85">
          <mxGeometry relative="1" as="geometry">
            <mxPoint x="690" y="-330" as="targetPoint" />
            <Array as="points">
              <mxPoint x="-797" y="-530" />
              <mxPoint x="850" y="-530" />
            </Array>
          </mxGeometry>
        </mxCell>
        <mxCell id="sd-PTnzk6fwNJQMEQ3Mg-1" value="n" style="edgeLabel;html=1;align=center;verticalAlign=middle;resizable=0;points=[];fontSize=60;" vertex="1" connectable="0" parent="sd-PTnzk6fwNJQMEQ3Mg-0">
          <mxGeometry x="0.2131" y="5" relative="1" as="geometry">
            <mxPoint x="1" as="offset" />
          </mxGeometry>
        </mxCell>
        <mxCell id="sd-PTnzk6fwNJQMEQ3Mg-29" style="edgeStyle=orthogonalEdgeStyle;rounded=0;orthogonalLoop=1;jettySize=auto;html=1;exitX=0.25;exitY=0;exitDx=0;exitDy=0;fontSize=60;endArrow=none;endFill=0;entryX=0.5;entryY=0;entryDx=0;entryDy=0;" edge="1" parent="PjkLEHFJH_S7j5Nac1_n-1" source="CbqCbyVV5nw6GIlTXYTx-16" target="sd-PTnzk6fwNJQMEQ3Mg-30">
          <mxGeometry relative="1" as="geometry">
            <mxPoint x="1523" y="-450" as="targetPoint" />
            <Array as="points">
              <mxPoint x="-859" y="-730" />
              <mxPoint x="1523" y="-730" />
              <mxPoint x="1523" y="-390" />
            </Array>
          </mxGeometry>
        </mxCell>
        <mxCell id="sd-PTnzk6fwNJQMEQ3Mg-33" value="1" style="edgeLabel;html=1;align=center;verticalAlign=middle;resizable=0;points=[];fontSize=60;" vertex="1" connectable="0" parent="sd-PTnzk6fwNJQMEQ3Mg-29">
          <mxGeometry x="0.5615" y="-1" relative="1" as="geometry">
            <mxPoint x="-1" as="offset" />
          </mxGeometry>
        </mxCell>
        <mxCell id="CbqCbyVV5nw6GIlTXYTx-16" value="个人信息" style="rounded=1;whiteSpace=wrap;html=1;verticalAlign=middle;fontSize=40;fillColor=#dae8fc;strokeColor=#6c8ebf;" parent="PjkLEHFJH_S7j5Nac1_n-1" vertex="1">
          <mxGeometry x="-910" y="1580" width="203" height="60" as="geometry" />
        </mxCell>
        <mxCell id="CbqCbyVV5nw6GIlTXYTx-17" value="project_auth" style="rounded=1;whiteSpace=wrap;html=1;gradientColor=none;verticalAlign=middle;" parent="PjkLEHFJH_S7j5Nac1_n-1" vertex="1">
          <mxGeometry x="-1200" y="760" width="120" height="60" as="geometry" />
        </mxCell>
        <mxCell id="CbqCbyVV5nw6GIlTXYTx-18" value="project_countrycode" style="rounded=1;whiteSpace=wrap;html=1;gradientColor=none;verticalAlign=middle;" parent="PjkLEHFJH_S7j5Nac1_n-1" vertex="1">
          <mxGeometry x="-1080" y="840" width="120" height="60" as="geometry" />
        </mxCell>
        <mxCell id="CbqCbyVV5nw6GIlTXYTx-30" style="edgeStyle=orthogonalEdgeStyle;rounded=0;orthogonalLoop=1;jettySize=auto;html=1;exitX=1;exitY=0.5;exitDx=0;exitDy=0;endArrow=none;endFill=0;entryX=0;entryY=0.5;entryDx=0;entryDy=0;" parent="PjkLEHFJH_S7j5Nac1_n-1" edge="1" target="CbqCbyVV5nw6GIlTXYTx-4" source="CbqCbyVV5nw6GIlTXYTx-31">
          <mxGeometry relative="1" as="geometry">
            <mxPoint x="277.0000000000168" y="534.9999999999998" as="sourcePoint" />
            <mxPoint x="130" y="580" as="targetPoint" />
            <Array as="points">
              <mxPoint x="140" y="535" />
              <mxPoint x="140" y="538" />
              <mxPoint x="170" y="538" />
            </Array>
          </mxGeometry>
        </mxCell>
        <mxCell id="CbqCbyVV5nw6GIlTXYTx-35" value="1" style="edgeLabel;html=1;align=center;verticalAlign=middle;resizable=0;points=[];fontSize=80;" parent="CbqCbyVV5nw6GIlTXYTx-30" vertex="1" connectable="0">
          <mxGeometry x="0.1257" relative="1" as="geometry">
            <mxPoint as="offset" />
          </mxGeometry>
        </mxCell>
        <mxCell id="CbqCbyVV5nw6GIlTXYTx-31" value="对应" style="rhombus;whiteSpace=wrap;html=1;gradientColor=none;verticalAlign=middle;" parent="PjkLEHFJH_S7j5Nac1_n-1" vertex="1">
          <mxGeometry x="-330" y="505" width="100" height="60" as="geometry" />
        </mxCell>
        <mxCell id="CbqCbyVV5nw6GIlTXYTx-42" value="1" style="edgeStyle=orthogonalEdgeStyle;rounded=0;orthogonalLoop=1;jettySize=auto;html=1;exitX=1;exitY=0.5;exitDx=0;exitDy=0;entryX=0;entryY=0.5;entryDx=0;entryDy=0;endArrow=none;endFill=0;" parent="PjkLEHFJH_S7j5Nac1_n-1" source="CbqCbyVV5nw6GIlTXYTx-41" target="PjkLEHFJH_S7j5Nac1_n-2" edge="1">
          <mxGeometry relative="1" as="geometry" />
        </mxCell>
        <mxCell id="CbqCbyVV5nw6GIlTXYTx-44" value="1" style="edgeLabel;html=1;align=center;verticalAlign=middle;resizable=0;points=[];fontSize=80;" parent="CbqCbyVV5nw6GIlTXYTx-42" vertex="1" connectable="0">
          <mxGeometry x="0.0196" y="1" relative="1" as="geometry">
            <mxPoint as="offset" />
          </mxGeometry>
        </mxCell>
        <mxCell id="CbqCbyVV5nw6GIlTXYTx-43" style="edgeStyle=orthogonalEdgeStyle;rounded=0;orthogonalLoop=1;jettySize=auto;html=1;exitX=0;exitY=0.5;exitDx=0;exitDy=0;entryX=1;entryY=0.5;entryDx=0;entryDy=0;endArrow=none;endFill=0;fontSize=15;" parent="PjkLEHFJH_S7j5Nac1_n-1" source="CbqCbyVV5nw6GIlTXYTx-41" target="CbqCbyVV5nw6GIlTXYTx-1" edge="1">
          <mxGeometry relative="1" as="geometry" />
        </mxCell>
        <mxCell id="CbqCbyVV5nw6GIlTXYTx-45" value="1" style="edgeLabel;html=1;align=center;verticalAlign=middle;resizable=0;points=[];fontSize=80;" parent="CbqCbyVV5nw6GIlTXYTx-43" vertex="1" connectable="0">
          <mxGeometry x="0.0366" y="-2" relative="1" as="geometry">
            <mxPoint as="offset" />
          </mxGeometry>
        </mxCell>
        <mxCell id="CbqCbyVV5nw6GIlTXYTx-41" value="包含" style="rhombus;whiteSpace=wrap;html=1;gradientColor=none;verticalAlign=middle;fontSize=40;" parent="PjkLEHFJH_S7j5Nac1_n-1" vertex="1">
          <mxGeometry x="1150" y="710" width="100" height="60" as="geometry" />
        </mxCell>
        <mxCell id="CbqCbyVV5nw6GIlTXYTx-48" style="edgeStyle=orthogonalEdgeStyle;rounded=0;orthogonalLoop=1;jettySize=auto;html=1;exitX=0.5;exitY=1;exitDx=0;exitDy=0;entryX=0.5;entryY=0;entryDx=0;entryDy=0;endArrow=none;endFill=0;" parent="PjkLEHFJH_S7j5Nac1_n-1" source="CbqCbyVV5nw6GIlTXYTx-47" target="CbqCbyVV5nw6GIlTXYTx-2" edge="1">
          <mxGeometry relative="1" as="geometry" />
        </mxCell>
        <mxCell id="sd-PTnzk6fwNJQMEQ3Mg-5" value="n" style="edgeLabel;html=1;align=center;verticalAlign=middle;resizable=0;points=[];fontSize=80;" vertex="1" connectable="0" parent="CbqCbyVV5nw6GIlTXYTx-48">
          <mxGeometry x="-0.0286" relative="1" as="geometry">
            <mxPoint as="offset" />
          </mxGeometry>
        </mxCell>
        <mxCell id="CbqCbyVV5nw6GIlTXYTx-47" value="从属" style="rhombus;whiteSpace=wrap;html=1;gradientColor=none;verticalAlign=middle;fontSize=40;" parent="PjkLEHFJH_S7j5Nac1_n-1" vertex="1">
          <mxGeometry x="2390" y="1080" width="100" height="60" as="geometry" />
        </mxCell>
        <mxCell id="CbqCbyVV5nw6GIlTXYTx-53" style="edgeStyle=orthogonalEdgeStyle;rounded=0;orthogonalLoop=1;jettySize=auto;html=1;exitX=0.5;exitY=1;exitDx=0;exitDy=0;entryX=0.5;entryY=0;entryDx=0;entryDy=0;endArrow=none;endFill=0;" parent="PjkLEHFJH_S7j5Nac1_n-1" source="CbqCbyVV5nw6GIlTXYTx-52" target="CbqCbyVV5nw6GIlTXYTx-12" edge="1">
          <mxGeometry relative="1" as="geometry" />
        </mxCell>
        <mxCell id="sd-PTnzk6fwNJQMEQ3Mg-25" value="m" style="edgeLabel;html=1;align=center;verticalAlign=middle;resizable=0;points=[];fontSize=60;" vertex="1" connectable="0" parent="CbqCbyVV5nw6GIlTXYTx-53">
          <mxGeometry x="-0.1697" y="-1" relative="1" as="geometry">
            <mxPoint as="offset" />
          </mxGeometry>
        </mxCell>
        <mxCell id="CbqCbyVV5nw6GIlTXYTx-52" value="包含" style="rhombus;whiteSpace=wrap;html=1;gradientColor=none;verticalAlign=middle;fontSize=40;" parent="PjkLEHFJH_S7j5Nac1_n-1" vertex="1">
          <mxGeometry x="237.14" y="-250" width="100" height="60" as="geometry" />
        </mxCell>
        <mxCell id="CbqCbyVV5nw6GIlTXYTx-58" style="edgeStyle=orthogonalEdgeStyle;rounded=0;orthogonalLoop=1;jettySize=auto;html=1;exitX=0.5;exitY=1;exitDx=0;exitDy=0;entryX=0.5;entryY=0;entryDx=0;entryDy=0;endArrow=none;endFill=0;" parent="PjkLEHFJH_S7j5Nac1_n-1" source="CbqCbyVV5nw6GIlTXYTx-56" target="CbqCbyVV5nw6GIlTXYTx-16" edge="1">
          <mxGeometry relative="1" as="geometry" />
        </mxCell>
        <mxCell id="sd-PTnzk6fwNJQMEQ3Mg-23" value="1" style="edgeLabel;html=1;align=center;verticalAlign=middle;resizable=0;points=[];fontSize=80;" vertex="1" connectable="0" parent="CbqCbyVV5nw6GIlTXYTx-58">
          <mxGeometry x="0.1861" y="1" relative="1" as="geometry">
            <mxPoint as="offset" />
          </mxGeometry>
        </mxCell>
        <mxCell id="CbqCbyVV5nw6GIlTXYTx-56" value="登入" style="rhombus;whiteSpace=wrap;html=1;gradientColor=none;verticalAlign=middle;fontSize=40;" parent="PjkLEHFJH_S7j5Nac1_n-1" vertex="1">
          <mxGeometry x="-440" y="1100" width="100" height="60" as="geometry" />
        </mxCell>
        <mxCell id="CbqCbyVV5nw6GIlTXYTx-67" style="edgeStyle=orthogonalEdgeStyle;rounded=0;orthogonalLoop=1;jettySize=auto;html=1;exitX=1;exitY=0.5;exitDx=0;exitDy=0;entryX=0;entryY=0.5;entryDx=0;entryDy=0;endArrow=none;endFill=0;" parent="PjkLEHFJH_S7j5Nac1_n-1" source="CbqCbyVV5nw6GIlTXYTx-66" target="CbqCbyVV5nw6GIlTXYTx-6" edge="1">
          <mxGeometry relative="1" as="geometry">
            <Array as="points">
              <mxPoint x="2078" y="710" />
              <mxPoint x="2380" y="710" />
            </Array>
          </mxGeometry>
        </mxCell>
        <mxCell id="CbqCbyVV5nw6GIlTXYTx-66" value="从属" style="rhombus;whiteSpace=wrap;html=1;gradientColor=none;verticalAlign=middle;fontSize=40;" parent="PjkLEHFJH_S7j5Nac1_n-1" vertex="1">
          <mxGeometry x="1978.43" y="680" width="100" height="60" as="geometry" />
        </mxCell>
        <mxCell id="CbqCbyVV5nw6GIlTXYTx-70" style="edgeStyle=orthogonalEdgeStyle;rounded=0;orthogonalLoop=1;jettySize=auto;html=1;exitX=0.5;exitY=1;exitDx=0;exitDy=0;entryX=0;entryY=0.5;entryDx=0;entryDy=0;endArrow=none;endFill=0;" parent="PjkLEHFJH_S7j5Nac1_n-1" source="CbqCbyVV5nw6GIlTXYTx-69" target="CbqCbyVV5nw6GIlTXYTx-2" edge="1">
          <mxGeometry relative="1" as="geometry" />
        </mxCell>
        <mxCell id="sd-PTnzk6fwNJQMEQ3Mg-7" value="1" style="edgeLabel;html=1;align=center;verticalAlign=middle;resizable=0;points=[];fontSize=80;" vertex="1" connectable="0" parent="CbqCbyVV5nw6GIlTXYTx-70">
          <mxGeometry x="0.4017" y="-1" relative="1" as="geometry">
            <mxPoint as="offset" />
          </mxGeometry>
        </mxCell>
        <mxCell id="CbqCbyVV5nw6GIlTXYTx-69" value="从属" style="rhombus;whiteSpace=wrap;html=1;gradientColor=none;verticalAlign=middle;fontSize=40;" parent="PjkLEHFJH_S7j5Nac1_n-1" vertex="1">
          <mxGeometry x="1878.43" y="1290" width="100" height="60" as="geometry" />
        </mxCell>
        <mxCell id="CbqCbyVV5nw6GIlTXYTx-79" style="edgeStyle=orthogonalEdgeStyle;rounded=0;orthogonalLoop=1;jettySize=auto;html=1;exitX=0.5;exitY=0;exitDx=0;exitDy=0;entryX=0.5;entryY=1;entryDx=0;entryDy=0;fontSize=15;endArrow=none;endFill=0;" parent="PjkLEHFJH_S7j5Nac1_n-1" source="CbqCbyVV5nw6GIlTXYTx-77" target="CbqCbyVV5nw6GIlTXYTx-12" edge="1">
          <mxGeometry relative="1" as="geometry" />
        </mxCell>
        <mxCell id="CbqCbyVV5nw6GIlTXYTx-81" value="m" style="edgeLabel;html=1;align=center;verticalAlign=middle;resizable=0;points=[];fontSize=60;" parent="CbqCbyVV5nw6GIlTXYTx-79" vertex="1" connectable="0">
          <mxGeometry x="0.0095" y="1" relative="1" as="geometry">
            <mxPoint as="offset" />
          </mxGeometry>
        </mxCell>
        <mxCell id="CbqCbyVV5nw6GIlTXYTx-77" value="在孔样本" style="rhombus;whiteSpace=wrap;html=1;gradientColor=none;verticalAlign=middle;fontSize=40;" parent="PjkLEHFJH_S7j5Nac1_n-1" vertex="1">
          <mxGeometry x="207.14" y="140" width="172.86" height="51" as="geometry" />
        </mxCell>
        <mxCell id="itYfapkiOXWNwM8EMgjb-5" style="edgeStyle=orthogonalEdgeStyle;rounded=0;orthogonalLoop=1;jettySize=auto;html=1;exitX=0.5;exitY=0;exitDx=0;exitDy=0;entryX=1;entryY=0.5;entryDx=0;entryDy=0;fontSize=15;endArrow=none;endFill=0;" parent="PjkLEHFJH_S7j5Nac1_n-1" source="itYfapkiOXWNwM8EMgjb-4" target="CbqCbyVV5nw6GIlTXYTx-4" edge="1">
          <mxGeometry relative="1" as="geometry" />
        </mxCell>
        <mxCell id="itYfapkiOXWNwM8EMgjb-16" value="m" style="edgeLabel;html=1;align=center;verticalAlign=middle;resizable=0;points=[];fontSize=80;" parent="itYfapkiOXWNwM8EMgjb-5" vertex="1" connectable="0">
          <mxGeometry x="-0.1016" y="1" relative="1" as="geometry">
            <mxPoint as="offset" />
          </mxGeometry>
        </mxCell>
        <mxCell id="itYfapkiOXWNwM8EMgjb-43" style="edgeStyle=orthogonalEdgeStyle;rounded=0;orthogonalLoop=1;jettySize=auto;html=1;exitX=1;exitY=0.5;exitDx=0;exitDy=0;fontSize=15;endArrow=none;endFill=0;entryX=0;entryY=0.5;entryDx=0;entryDy=0;" parent="PjkLEHFJH_S7j5Nac1_n-1" source="itYfapkiOXWNwM8EMgjb-4" target="itYfapkiOXWNwM8EMgjb-44" edge="1">
          <mxGeometry relative="1" as="geometry">
            <mxPoint x="810" y="1140" as="targetPoint" />
            <Array as="points">
              <mxPoint x="647" y="1220" />
            </Array>
          </mxGeometry>
        </mxCell>
        <mxCell id="itYfapkiOXWNwM8EMgjb-49" value="&lt;font style=&quot;font-size: 80px&quot;&gt;m&lt;/font&gt;" style="edgeLabel;html=1;align=center;verticalAlign=middle;resizable=0;points=[];fontSize=15;" parent="itYfapkiOXWNwM8EMgjb-43" vertex="1" connectable="0">
          <mxGeometry x="0.2332" relative="1" as="geometry">
            <mxPoint x="-1" as="offset" />
          </mxGeometry>
        </mxCell>
        <mxCell id="itYfapkiOXWNwM8EMgjb-63" style="edgeStyle=orthogonalEdgeStyle;rounded=0;orthogonalLoop=1;jettySize=auto;html=1;exitX=1;exitY=1;exitDx=0;exitDy=0;fontSize=15;endArrow=none;endFill=0;" parent="PjkLEHFJH_S7j5Nac1_n-1" source="itYfapkiOXWNwM8EMgjb-4" edge="1">
          <mxGeometry relative="1" as="geometry">
            <mxPoint x="565" y="1165" as="targetPoint" />
          </mxGeometry>
        </mxCell>
        <mxCell id="itYfapkiOXWNwM8EMgjb-66" style="edgeStyle=orthogonalEdgeStyle;rounded=0;orthogonalLoop=1;jettySize=auto;html=1;exitX=0;exitY=0.5;exitDx=0;exitDy=0;fontSize=15;endArrow=none;endFill=0;entryX=0.5;entryY=0;entryDx=0;entryDy=0;" parent="PjkLEHFJH_S7j5Nac1_n-1" source="itYfapkiOXWNwM8EMgjb-4" target="itYfapkiOXWNwM8EMgjb-67" edge="1">
          <mxGeometry relative="1" as="geometry">
            <mxPoint x="410" y="1800" as="targetPoint" />
          </mxGeometry>
        </mxCell>
        <mxCell id="itYfapkiOXWNwM8EMgjb-69" value="&lt;font style=&quot;font-size: 80px&quot;&gt;n&lt;/font&gt;" style="edgeLabel;html=1;align=center;verticalAlign=middle;resizable=0;points=[];fontSize=15;" parent="itYfapkiOXWNwM8EMgjb-66" vertex="1" connectable="0">
          <mxGeometry x="-0.0823" y="2" relative="1" as="geometry">
            <mxPoint as="offset" />
          </mxGeometry>
        </mxCell>
        <mxCell id="itYfapkiOXWNwM8EMgjb-79" style="edgeStyle=orthogonalEdgeStyle;rounded=0;orthogonalLoop=1;jettySize=auto;html=1;exitX=0;exitY=0;exitDx=0;exitDy=0;fontSize=15;endArrow=none;endFill=0;entryX=0.5;entryY=0;entryDx=0;entryDy=0;" parent="PjkLEHFJH_S7j5Nac1_n-1" source="itYfapkiOXWNwM8EMgjb-4" edge="1" target="itYfapkiOXWNwM8EMgjb-81">
          <mxGeometry relative="1" as="geometry">
            <mxPoint x="1090" y="1470" as="targetPoint" />
          </mxGeometry>
        </mxCell>
        <mxCell id="sd-PTnzk6fwNJQMEQ3Mg-26" value="n" style="edgeLabel;html=1;align=center;verticalAlign=middle;resizable=0;points=[];fontSize=80;" vertex="1" connectable="0" parent="itYfapkiOXWNwM8EMgjb-79">
          <mxGeometry x="0.5268" y="-1" relative="1" as="geometry">
            <mxPoint as="offset" />
          </mxGeometry>
        </mxCell>
        <mxCell id="itYfapkiOXWNwM8EMgjb-4" value="出库（出库员）" style="rhombus;whiteSpace=wrap;html=1;verticalAlign=middle;fillColor=#dae8fc;strokeColor=#6c8ebf;fontSize=40;" parent="PjkLEHFJH_S7j5Nac1_n-1" vertex="1">
          <mxGeometry x="320" y="1100" width="327" height="80" as="geometry" />
        </mxCell>
        <mxCell id="itYfapkiOXWNwM8EMgjb-20" style="edgeStyle=orthogonalEdgeStyle;rounded=0;orthogonalLoop=1;jettySize=auto;html=1;exitX=1;exitY=0.5;exitDx=0;exitDy=0;fontSize=15;endArrow=none;endFill=0;" parent="PjkLEHFJH_S7j5Nac1_n-1" source="itYfapkiOXWNwM8EMgjb-19" target="PjkLEHFJH_S7j5Nac1_n-2" edge="1">
          <mxGeometry relative="1" as="geometry" />
        </mxCell>
        <mxCell id="itYfapkiOXWNwM8EMgjb-21" value="1" style="edgeLabel;html=1;align=center;verticalAlign=middle;resizable=0;points=[];fontSize=80;" parent="itYfapkiOXWNwM8EMgjb-20" vertex="1" connectable="0">
          <mxGeometry x="-0.1677" y="2" relative="1" as="geometry">
            <mxPoint x="-1" as="offset" />
          </mxGeometry>
        </mxCell>
        <mxCell id="itYfapkiOXWNwM8EMgjb-19" value="从属" style="rhombus;whiteSpace=wrap;html=1;gradientColor=none;verticalAlign=middle;fontSize=40;" parent="PjkLEHFJH_S7j5Nac1_n-1" vertex="1">
          <mxGeometry x="930" y="490" width="100" height="60" as="geometry" />
        </mxCell>
        <mxCell id="itYfapkiOXWNwM8EMgjb-25" style="edgeStyle=orthogonalEdgeStyle;rounded=0;orthogonalLoop=1;jettySize=auto;html=1;exitX=0.5;exitY=1;exitDx=0;exitDy=0;fontSize=15;endArrow=none;endFill=0;entryX=0.5;entryY=0;entryDx=0;entryDy=0;" parent="PjkLEHFJH_S7j5Nac1_n-1" source="itYfapkiOXWNwM8EMgjb-23" target="itYfapkiOXWNwM8EMgjb-28" edge="1">
          <mxGeometry relative="1" as="geometry">
            <mxPoint x="119.33333333333348" y="1280.0000000000002" as="targetPoint" />
          </mxGeometry>
        </mxCell>
        <mxCell id="sd-PTnzk6fwNJQMEQ3Mg-21" value="1" style="edgeLabel;html=1;align=center;verticalAlign=middle;resizable=0;points=[];fontSize=80;" vertex="1" connectable="0" parent="itYfapkiOXWNwM8EMgjb-25">
          <mxGeometry x="-0.2147" y="-4" relative="1" as="geometry">
            <mxPoint as="offset" />
          </mxGeometry>
        </mxCell>
        <mxCell id="itYfapkiOXWNwM8EMgjb-37" style="edgeStyle=orthogonalEdgeStyle;rounded=0;orthogonalLoop=1;jettySize=auto;html=1;exitX=0.75;exitY=1;exitDx=0;exitDy=0;fontSize=15;endArrow=none;endFill=0;entryX=0;entryY=0.5;entryDx=0;entryDy=0;" parent="PjkLEHFJH_S7j5Nac1_n-1" source="CbqCbyVV5nw6GIlTXYTx-4" target="itYfapkiOXWNwM8EMgjb-38" edge="1">
          <mxGeometry relative="1" as="geometry">
            <mxPoint x="670" y="950" as="targetPoint" />
            <Array as="points">
              <mxPoint x="517" y="950" />
            </Array>
          </mxGeometry>
        </mxCell>
        <mxCell id="itYfapkiOXWNwM8EMgjb-41" value="n" style="edgeLabel;html=1;align=center;verticalAlign=middle;resizable=0;points=[];fontSize=80;" parent="itYfapkiOXWNwM8EMgjb-37" vertex="1" connectable="0">
          <mxGeometry x="-0.1474" y="1" relative="1" as="geometry">
            <mxPoint as="offset" />
          </mxGeometry>
        </mxCell>
        <mxCell id="itYfapkiOXWNwM8EMgjb-23" value="入库表（入库员）" style="rounded=1;whiteSpace=wrap;html=1;verticalAlign=middle;fillColor=#dae8fc;strokeColor=#6c8ebf;fontSize=40;" parent="PjkLEHFJH_S7j5Nac1_n-1" vertex="1">
          <mxGeometry x="-50" y="980" width="370" height="80" as="geometry" />
        </mxCell>
        <mxCell id="itYfapkiOXWNwM8EMgjb-29" style="edgeStyle=orthogonalEdgeStyle;rounded=0;orthogonalLoop=1;jettySize=auto;html=1;exitX=0.5;exitY=1;exitDx=0;exitDy=0;entryX=1;entryY=0.5;entryDx=0;entryDy=0;fontSize=15;endArrow=none;endFill=0;" parent="PjkLEHFJH_S7j5Nac1_n-1" source="itYfapkiOXWNwM8EMgjb-28" target="CbqCbyVV5nw6GIlTXYTx-16" edge="1">
          <mxGeometry relative="1" as="geometry" />
        </mxCell>
        <mxCell id="sd-PTnzk6fwNJQMEQ3Mg-15" value="1" style="edgeLabel;html=1;align=center;verticalAlign=middle;resizable=0;points=[];fontSize=80;" vertex="1" connectable="0" parent="itYfapkiOXWNwM8EMgjb-29">
          <mxGeometry x="-0.5986" y="1" relative="1" as="geometry">
            <mxPoint as="offset" />
          </mxGeometry>
        </mxCell>
        <mxCell id="itYfapkiOXWNwM8EMgjb-28" value="登入" style="rhombus;whiteSpace=wrap;html=1;gradientColor=none;verticalAlign=middle;fontSize=40;" parent="PjkLEHFJH_S7j5Nac1_n-1" vertex="1">
          <mxGeometry x="70" y="1230" width="100" height="60" as="geometry" />
        </mxCell>
        <mxCell id="itYfapkiOXWNwM8EMgjb-34" style="edgeStyle=orthogonalEdgeStyle;rounded=0;orthogonalLoop=1;jettySize=auto;html=1;exitX=0.5;exitY=1;exitDx=0;exitDy=0;fontSize=15;endArrow=none;endFill=0;" parent="PjkLEHFJH_S7j5Nac1_n-1" source="itYfapkiOXWNwM8EMgjb-33" target="itYfapkiOXWNwM8EMgjb-23" edge="1">
          <mxGeometry relative="1" as="geometry" />
        </mxCell>
        <mxCell id="sd-PTnzk6fwNJQMEQ3Mg-20" value="1" style="edgeLabel;html=1;align=center;verticalAlign=middle;resizable=0;points=[];fontSize=80;" vertex="1" connectable="0" parent="itYfapkiOXWNwM8EMgjb-34">
          <mxGeometry x="-0.0857" y="-2" relative="1" as="geometry">
            <mxPoint as="offset" />
          </mxGeometry>
        </mxCell>
        <mxCell id="itYfapkiOXWNwM8EMgjb-33" value="包含" style="rhombus;whiteSpace=wrap;html=1;gradientColor=none;verticalAlign=middle;fontSize=40;" parent="PjkLEHFJH_S7j5Nac1_n-1" vertex="1">
          <mxGeometry x="102.14" y="760" width="100" height="60" as="geometry" />
        </mxCell>
        <mxCell id="itYfapkiOXWNwM8EMgjb-39" style="edgeStyle=orthogonalEdgeStyle;rounded=0;orthogonalLoop=1;jettySize=auto;html=1;exitX=1;exitY=0.5;exitDx=0;exitDy=0;entryX=0;entryY=0.5;entryDx=0;entryDy=0;fontSize=15;endArrow=none;endFill=0;" parent="PjkLEHFJH_S7j5Nac1_n-1" source="itYfapkiOXWNwM8EMgjb-38" target="CbqCbyVV5nw6GIlTXYTx-1" edge="1">
          <mxGeometry relative="1" as="geometry">
            <Array as="points">
              <mxPoint x="720" y="950" />
              <mxPoint x="720" y="735" />
            </Array>
          </mxGeometry>
        </mxCell>
        <mxCell id="itYfapkiOXWNwM8EMgjb-42" value="1" style="edgeLabel;html=1;align=center;verticalAlign=middle;resizable=0;points=[];fontSize=80;" parent="itYfapkiOXWNwM8EMgjb-39" vertex="1" connectable="0">
          <mxGeometry x="-0.0427" y="-1" relative="1" as="geometry">
            <mxPoint as="offset" />
          </mxGeometry>
        </mxCell>
        <mxCell id="itYfapkiOXWNwM8EMgjb-38" value="包含" style="rhombus;whiteSpace=wrap;html=1;gradientColor=none;verticalAlign=middle;fontSize=40;" parent="PjkLEHFJH_S7j5Nac1_n-1" vertex="1">
          <mxGeometry x="630" y="920" width="100" height="60" as="geometry" />
        </mxCell>
        <mxCell id="itYfapkiOXWNwM8EMgjb-45" style="edgeStyle=orthogonalEdgeStyle;rounded=0;orthogonalLoop=1;jettySize=auto;html=1;exitX=0.5;exitY=0;exitDx=0;exitDy=0;entryX=0.5;entryY=1;entryDx=0;entryDy=0;fontSize=15;endArrow=none;endFill=0;" parent="PjkLEHFJH_S7j5Nac1_n-1" source="itYfapkiOXWNwM8EMgjb-44" target="CbqCbyVV5nw6GIlTXYTx-1" edge="1">
          <mxGeometry relative="1" as="geometry" />
        </mxCell>
        <mxCell id="itYfapkiOXWNwM8EMgjb-48" value="&lt;font style=&quot;font-size: 80px&quot;&gt;1&lt;/font&gt;" style="edgeLabel;html=1;align=center;verticalAlign=middle;resizable=0;points=[];fontSize=15;" parent="itYfapkiOXWNwM8EMgjb-45" vertex="1" connectable="0">
          <mxGeometry x="0.2" relative="1" as="geometry">
            <mxPoint as="offset" />
          </mxGeometry>
        </mxCell>
        <mxCell id="itYfapkiOXWNwM8EMgjb-44" value="包含" style="rhombus;whiteSpace=wrap;html=1;gradientColor=none;verticalAlign=middle;fontSize=40;" parent="PjkLEHFJH_S7j5Nac1_n-1" vertex="1">
          <mxGeometry x="990" y="1190" width="100" height="60" as="geometry" />
        </mxCell>
        <mxCell id="itYfapkiOXWNwM8EMgjb-52" style="edgeStyle=orthogonalEdgeStyle;rounded=0;orthogonalLoop=1;jettySize=auto;html=1;exitX=0.5;exitY=0;exitDx=0;exitDy=0;entryX=1;entryY=1;entryDx=0;entryDy=0;fontSize=15;endArrow=none;endFill=0;" parent="PjkLEHFJH_S7j5Nac1_n-1" source="itYfapkiOXWNwM8EMgjb-51" target="itYfapkiOXWNwM8EMgjb-4" edge="1">
          <mxGeometry relative="1" as="geometry" />
        </mxCell>
        <mxCell id="itYfapkiOXWNwM8EMgjb-53" value="&lt;font style=&quot;font-size: 80px&quot;&gt;m&lt;/font&gt;" style="edgeLabel;html=1;align=center;verticalAlign=middle;resizable=0;points=[];fontSize=15;" parent="itYfapkiOXWNwM8EMgjb-52" vertex="1" connectable="0">
          <mxGeometry x="-0.1501" y="-4" relative="1" as="geometry">
            <mxPoint as="offset" />
          </mxGeometry>
        </mxCell>
        <mxCell id="itYfapkiOXWNwM8EMgjb-51" value="包含" style="rhombus;whiteSpace=wrap;html=1;gradientColor=none;verticalAlign=middle;fontSize=40;" parent="PjkLEHFJH_S7j5Nac1_n-1" vertex="1">
          <mxGeometry x="770" y="1400" width="100" height="60" as="geometry" />
        </mxCell>
        <mxCell id="itYfapkiOXWNwM8EMgjb-58" style="edgeStyle=orthogonalEdgeStyle;rounded=0;orthogonalLoop=1;jettySize=auto;html=1;exitX=0.5;exitY=0;exitDx=0;exitDy=0;fontSize=80;endArrow=none;endFill=0;entryX=0.5;entryY=1;entryDx=0;entryDy=0;" parent="PjkLEHFJH_S7j5Nac1_n-1" source="itYfapkiOXWNwM8EMgjb-56" target="PjkLEHFJH_S7j5Nac1_n-2" edge="1">
          <mxGeometry relative="1" as="geometry">
            <mxPoint x="1383" y="890" as="targetPoint" />
            <Array as="points">
              <mxPoint x="1493" y="1191" />
            </Array>
          </mxGeometry>
        </mxCell>
        <mxCell id="itYfapkiOXWNwM8EMgjb-60" value="n" style="edgeLabel;html=1;align=center;verticalAlign=middle;resizable=0;points=[];fontSize=80;" parent="itYfapkiOXWNwM8EMgjb-58" vertex="1" connectable="0">
          <mxGeometry x="-0.1243" y="-1" relative="1" as="geometry">
            <mxPoint as="offset" />
          </mxGeometry>
        </mxCell>
        <mxCell id="itYfapkiOXWNwM8EMgjb-56" value="指派" style="rhombus;whiteSpace=wrap;html=1;verticalAlign=middle;fillColor=#dae8fc;strokeColor=#6c8ebf;fontSize=40;" parent="PjkLEHFJH_S7j5Nac1_n-1" vertex="1">
          <mxGeometry x="1443" y="1210" width="100" height="60" as="geometry" />
        </mxCell>
        <mxCell id="itYfapkiOXWNwM8EMgjb-68" style="edgeStyle=orthogonalEdgeStyle;rounded=0;orthogonalLoop=1;jettySize=auto;html=1;exitX=0;exitY=0.5;exitDx=0;exitDy=0;entryX=0.5;entryY=1;entryDx=0;entryDy=0;fontSize=15;endArrow=none;endFill=0;" parent="PjkLEHFJH_S7j5Nac1_n-1" source="itYfapkiOXWNwM8EMgjb-67" target="CbqCbyVV5nw6GIlTXYTx-16" edge="1">
          <mxGeometry relative="1" as="geometry" />
        </mxCell>
        <mxCell id="sd-PTnzk6fwNJQMEQ3Mg-12" value="m" style="edgeLabel;html=1;align=center;verticalAlign=middle;resizable=0;points=[];fontSize=80;" vertex="1" connectable="0" parent="itYfapkiOXWNwM8EMgjb-68">
          <mxGeometry x="-0.5614" relative="1" as="geometry">
            <mxPoint as="offset" />
          </mxGeometry>
        </mxCell>
        <mxCell id="itYfapkiOXWNwM8EMgjb-67" value="出库失败审计（管理员）" style="rhombus;whiteSpace=wrap;html=1;verticalAlign=middle;fillColor=#dae8fc;strokeColor=#6c8ebf;fontSize=40;" parent="PjkLEHFJH_S7j5Nac1_n-1" vertex="1">
          <mxGeometry x="380" y="1910" width="470" height="120" as="geometry" />
        </mxCell>
        <mxCell id="itYfapkiOXWNwM8EMgjb-73" style="edgeStyle=orthogonalEdgeStyle;rounded=0;orthogonalLoop=1;jettySize=auto;html=1;entryX=0;entryY=0.5;entryDx=0;entryDy=0;fontSize=15;endArrow=none;endFill=0;" parent="PjkLEHFJH_S7j5Nac1_n-1" source="itYfapkiOXWNwM8EMgjb-72" target="itYfapkiOXWNwM8EMgjb-23" edge="1">
          <mxGeometry relative="1" as="geometry">
            <Array as="points">
              <mxPoint x="-120" y="1020" />
            </Array>
          </mxGeometry>
        </mxCell>
        <mxCell id="sd-PTnzk6fwNJQMEQ3Mg-19" value="m" style="edgeLabel;html=1;align=center;verticalAlign=middle;resizable=0;points=[];fontSize=80;" vertex="1" connectable="0" parent="itYfapkiOXWNwM8EMgjb-73">
          <mxGeometry x="-0.1734" y="2" relative="1" as="geometry">
            <mxPoint as="offset" />
          </mxGeometry>
        </mxCell>
        <mxCell id="itYfapkiOXWNwM8EMgjb-72" value="入库单" style="rhombus;whiteSpace=wrap;html=1;gradientColor=none;verticalAlign=middle;fontSize=40;" parent="PjkLEHFJH_S7j5Nac1_n-1" vertex="1">
          <mxGeometry x="-230" y="1190" width="140" height="60" as="geometry" />
        </mxCell>
        <mxCell id="itYfapkiOXWNwM8EMgjb-81" value="出库单（出库员）" style="rhombus;whiteSpace=wrap;html=1;verticalAlign=middle;fillColor=#dae8fc;strokeColor=#6c8ebf;fontSize=40;" parent="PjkLEHFJH_S7j5Nac1_n-1" vertex="1">
          <mxGeometry x="1110" y="1990" width="330" height="110" as="geometry" />
        </mxCell>
        <mxCell id="itYfapkiOXWNwM8EMgjb-86" style="edgeStyle=orthogonalEdgeStyle;rounded=0;orthogonalLoop=1;jettySize=auto;html=1;exitX=0.5;exitY=1;exitDx=0;exitDy=0;entryX=0.5;entryY=0;entryDx=0;entryDy=0;fontSize=80;endArrow=none;endFill=0;" parent="PjkLEHFJH_S7j5Nac1_n-1" source="itYfapkiOXWNwM8EMgjb-85" target="CbqCbyVV5nw6GIlTXYTx-1" edge="1">
          <mxGeometry relative="1" as="geometry">
            <Array as="points">
              <mxPoint x="850" />
              <mxPoint x="850" y="660" />
              <mxPoint x="900" y="660" />
            </Array>
          </mxGeometry>
        </mxCell>
        <mxCell id="sd-PTnzk6fwNJQMEQ3Mg-3" value="m" style="edgeLabel;html=1;align=center;verticalAlign=middle;resizable=0;points=[];fontSize=80;" vertex="1" connectable="0" parent="itYfapkiOXWNwM8EMgjb-86">
          <mxGeometry x="0.2966" y="2" relative="1" as="geometry">
            <mxPoint as="offset" />
          </mxGeometry>
        </mxCell>
        <mxCell id="itYfapkiOXWNwM8EMgjb-85" value="对应" style="rhombus;whiteSpace=wrap;html=1;verticalAlign=middle;fontSize=40;fillColor=#dae8fc;strokeColor=#6c8ebf;" parent="PjkLEHFJH_S7j5Nac1_n-1" vertex="1">
          <mxGeometry x="800" y="-50" width="100" height="60" as="geometry" />
        </mxCell>
        <mxCell id="sd-PTnzk6fwNJQMEQ3Mg-30" value="项目负责人" style="rhombus;whiteSpace=wrap;html=1;verticalAlign=middle;fontSize=40;fillColor=#dae8fc;strokeColor=#6c8ebf;" vertex="1" parent="PjkLEHFJH_S7j5Nac1_n-1">
          <mxGeometry x="1390" y="-390" width="267" height="150" as="geometry" />
        </mxCell>
        <mxCell id="sd-PTnzk6fwNJQMEQ3Mg-34" value="国家编码（项目编码）" style="rounded=1;whiteSpace=wrap;html=1;verticalAlign=middle;fontSize=30;fillColor=#dae8fc;strokeColor=#6c8ebf;" vertex="1" parent="PjkLEHFJH_S7j5Nac1_n-1">
          <mxGeometry x="3160" y="-152.5" width="340" height="85" as="geometry" />
        </mxCell>
        <mxCell id="sd-PTnzk6fwNJQMEQ3Mg-35" value="国家编码" style="ellipse;whiteSpace=wrap;html=1;fontSize=30;gradientColor=none;verticalAlign=middle;" vertex="1" parent="PjkLEHFJH_S7j5Nac1_n-1">
          <mxGeometry x="3660" y="-160" width="270" height="100" as="geometry" />
        </mxCell>
        <mxCell id="sd-PTnzk6fwNJQMEQ3Mg-36" value="项目编码" style="ellipse;whiteSpace=wrap;html=1;fontSize=30;gradientColor=none;verticalAlign=middle;" vertex="1" parent="PjkLEHFJH_S7j5Nac1_n-1">
          <mxGeometry x="3660" y="-30" width="280" height="90" as="geometry" />
        </mxCell>
        <mxCell id="sd-PTnzk6fwNJQMEQ3Mg-38" value="" style="endArrow=classic;html=1;fontSize=30;entryX=0;entryY=0.5;entryDx=0;entryDy=0;exitX=1;exitY=0.5;exitDx=0;exitDy=0;" edge="1" parent="PjkLEHFJH_S7j5Nac1_n-1" source="sd-PTnzk6fwNJQMEQ3Mg-34" target="sd-PTnzk6fwNJQMEQ3Mg-35">
          <mxGeometry width="50" height="50" relative="1" as="geometry">
            <mxPoint x="3440" y="-80" as="sourcePoint" />
            <mxPoint x="3490" y="-130" as="targetPoint" />
          </mxGeometry>
        </mxCell>
        <mxCell id="sd-PTnzk6fwNJQMEQ3Mg-40" value="" style="endArrow=classic;html=1;fontSize=30;entryX=0.036;entryY=0.556;entryDx=0;entryDy=0;exitX=1;exitY=0.5;exitDx=0;exitDy=0;entryPerimeter=0;" edge="1" parent="PjkLEHFJH_S7j5Nac1_n-1" source="sd-PTnzk6fwNJQMEQ3Mg-34" target="sd-PTnzk6fwNJQMEQ3Mg-36">
          <mxGeometry width="50" height="50" relative="1" as="geometry">
            <mxPoint x="3490" y="-40" as="sourcePoint" />
            <mxPoint x="3670" y="-100" as="targetPoint" />
          </mxGeometry>
        </mxCell>
        <mxCell id="sd-PTnzk6fwNJQMEQ3Mg-41" value="国家编码id" style="ellipse;whiteSpace=wrap;html=1;fontSize=30;gradientColor=none;verticalAlign=middle;" vertex="1" parent="PjkLEHFJH_S7j5Nac1_n-1">
          <mxGeometry x="3660" y="-290" width="270" height="100" as="geometry" />
        </mxCell>
        <mxCell id="sd-PTnzk6fwNJQMEQ3Mg-42" value="" style="endArrow=classic;html=1;fontSize=30;entryX=0;entryY=0.5;entryDx=0;entryDy=0;exitX=1;exitY=0.5;exitDx=0;exitDy=0;" edge="1" parent="PjkLEHFJH_S7j5Nac1_n-1" source="sd-PTnzk6fwNJQMEQ3Mg-34" target="sd-PTnzk6fwNJQMEQ3Mg-41">
          <mxGeometry width="50" height="50" relative="1" as="geometry">
            <mxPoint x="3480" y="-50" as="sourcePoint" />
            <mxPoint x="3670" y="-100" as="targetPoint" />
          </mxGeometry>
        </mxCell>
      </root>
    </mxGraphModel>
  </diagram>
</mxfile>
